<svg width="25" height="18" viewBox="0 0 25 18" fill="none" xmlns="http://www.w3.org/2000/svg">
<path d="M9.86831 10.039C9.73868 9.90477 9.53571 9.88084 9.40561 10.0147C8.19247 11.2624 7.02583 12.464 5.85811 13.6661C4.79135 14.7615 3.72459 15.8553 2.65783 16.9474C2.30888 17.3032 1.88792 17.4132 1.41342 17.2697C0.938914 17.1263 0.656428 16.7806 0.551804 16.292C0.450872 15.8168 0.627503 15.4268 0.951223 15.0912C2.43074 13.5728 3.90902 12.0538 5.38607 10.5345C6.48114 9.41041 7.57703 8.28693 8.67374 7.16408C9.27503 6.55104 9.97109 6.54788 10.5699 7.1546C11.402 7.99726 12.2285 8.84625 13.0495 9.70155C13.19 9.84682 13.4008 9.89178 13.5418 9.74691L19.9801 3.12942C20.0594 3.04789 20.0069 2.90516 19.8932 2.90441C19.0931 2.90441 18.293 2.91263 17.493 2.89935C16.9643 2.89114 16.5661 2.62759 16.3489 2.134C16.1415 1.66253 16.2104 1.20497 16.5335 0.803015C16.6494 0.654041 16.7971 0.534396 16.9652 0.45331C17.1332 0.372223 17.3172 0.331861 17.5028 0.335336C19.4181 0.330912 21.3382 0.32712 23.2559 0.337232C23.9803 0.341024 24.5164 0.906031 24.5188 1.64863C24.525 3.60782 24.525 5.56702 24.5188 7.52621C24.5188 8.27071 23.9508 8.85341 23.2627 8.84709C22.5747 8.84077 22.0441 8.28461 22.0318 7.53822C22.0201 6.73811 22.0288 5.93737 22.0288 5.13663V4.85074C22.0288 4.82206 22.0144 4.79528 21.9905 4.77938C21.9502 4.75252 21.8957 4.76451 21.8689 4.80487C21.812 4.89039 21.7503 4.97247 21.6841 5.05068C19.2355 7.56982 16.785 10.0871 14.3327 12.6024C13.6945 13.2565 13.0046 13.2578 12.3688 12.6081C11.5339 11.7545 10.7004 10.8981 9.86831 10.039Z" fill="#027A48"/>
</svg>
