<svg width="25" height="18" viewBox="0 0 25 18" fill="none" xmlns="http://www.w3.org/2000/svg">
<path d="M9.86831 9.96799C9.73868 9.83373 9.53571 9.8098 9.40561 9.94361C8.19247 11.1914 7.02583 12.3929 5.85811 13.595C4.79135 14.6905 3.72459 15.7843 2.65783 16.8764C2.30888 17.2322 1.88792 17.3421 1.41342 17.1987C0.938914 17.0552 0.656428 16.7095 0.551804 16.221C0.450872 15.7457 0.627503 15.3558 0.951223 15.0202C2.43074 13.5017 3.90902 11.9828 5.38607 10.4635C6.48114 9.33937 7.57703 8.21588 8.67374 7.09303C9.27503 6.47999 9.97109 6.47683 10.5699 7.08355C11.402 7.92622 12.2285 8.7752 13.0495 9.63051C13.19 9.77578 13.4008 9.82074 13.5418 9.67587L19.9801 3.05837C20.0594 2.97684 20.0069 2.83412 19.8932 2.83336C19.0931 2.83336 18.293 2.84158 17.493 2.82831C16.9643 2.82009 16.5661 2.55655 16.3489 2.06296C16.1415 1.59149 16.2104 1.13392 16.5335 0.73197C16.6494 0.582996 16.7971 0.463351 16.9652 0.382265C17.1332 0.301178 17.3172 0.260816 17.5028 0.264291C19.4181 0.259867 21.3382 0.256075 23.2559 0.266187C23.9803 0.269979 24.5164 0.834986 24.5188 1.57758C24.525 3.53678 24.525 5.49597 24.5188 7.45517C24.5188 8.19966 23.9508 8.78236 23.2627 8.77604C22.5747 8.76972 22.0441 8.21357 22.0318 7.46718C22.0201 6.66707 22.0288 5.86632 22.0288 5.06558V4.7797C22.0288 4.75101 22.0144 4.72423 21.9905 4.70834C21.9502 4.68148 21.8957 4.69346 21.8689 4.73382C21.812 4.81935 21.7503 4.90143 21.6841 4.97963C19.2355 7.49878 16.785 10.016 14.3327 12.5314C13.6945 13.1855 13.0046 13.1868 12.3688 12.5371C11.5339 11.6834 10.7004 10.8271 9.86831 9.96799Z" fill="#D33E3E"/>
</svg>
