<svg width="264" height="77" viewBox="0 0 264 77" fill="none" xmlns="http://www.w3.org/2000/svg">
<path d="M22.1453 46.1986L-10 38.9856V77.0001H264L266.393 1.75115L262.566 1.16631L241.902 13.058L233.483 11.8883L207.46 23.0002L204.399 23.975L175.601 34.6968L167.564 36.8412L153.022 24.9495H150.344L133.506 34.6968H131.592L116.852 36.2564L101.63 37.2311L97.2804 35.5001L87.8571 29.0001L79.5475 24.5596L75.7207 23.0001L69.5978 24.5596L58.5 37.2311L54.2905 38.9856L45.8715 36.2564L38.2179 37.2311L22.1453 46.1986Z" fill="url(#paint0_linear_187_307)"/>
<path d="M-10 39.0143L21.8241 46.1767C22.8323 46.4036 23.8801 46.1296 24.6806 45.476C28.5746 42.2969 40.8362 33.3423 50.7181 37.6635C62.6311 42.8729 63.3257 21.6418 77.2342 23.1933C84.1515 23.9649 82.9832 27.3159 93.6561 33.0001C99.0992 35.899 97.6118 37.6635 104.529 37.6635L130.325 34.4717C130.792 34.4138 131.267 34.4614 131.714 34.611L131.848 34.6558C132.788 34.9705 133.821 34.8252 134.638 34.2635L148.949 24.423C150.16 23.5901 151.786 23.7036 152.87 24.6967L165.124 35.9249C165.913 36.6482 167.015 36.9221 168.052 36.6523L176.766 34.3838L203.836 25.0002L232.061 12.3212C232.697 12.0354 233.41 11.9683 234.088 12.1305L239.786 13.4927C240.632 13.695 241.525 13.5389 242.252 13.0613L259.693 1.61085C260.57 1.03504 261.676 0.932621 262.643 1.33756L265.707 2.6193" stroke="#4CACFF" stroke-width="2.10435"/>
<defs>
<linearGradient id="paint0_linear_187_307" x1="127" y1="23.0002" x2="127" y2="77.0003" gradientUnits="userSpaceOnUse">
<stop stop-color="#B6DDFF"/>
<stop offset="1" stop-color="white" stop-opacity="0.08"/>
</linearGradient>
</defs>
</svg>
