<svg width="20" height="20" viewBox="0 0 20 20" fill="none" xmlns="http://www.w3.org/2000/svg">
<path d="M19.2502 3.99992C18.8335 3.54159 18.2085 3.24992 17.5835 3.24992H15.3335V1.83325H4.66687V3.24992H2.41687C1.79187 3.24992 1.16687 3.54159 0.750204 3.99992C0.333538 4.45825 0.125204 5.08325 0.208538 5.70825C0.458538 7.62492 1.66687 12.1249 8.08354 12.1666C8.5002 12.3333 8.91687 12.4166 9.37521 12.4999V14.3749C7.66687 14.5833 6.20854 15.7083 5.54187 17.3333L5.16687 18.2083H14.8335L14.4585 17.3333C13.7919 15.7083 12.3335 14.6249 10.6252 14.3749V12.4999C11.0835 12.4583 11.5002 12.3333 11.9169 12.1666C18.2919 12.1249 19.5419 7.66658 19.7919 5.70825C19.8335 5.08325 19.6669 4.45825 19.2502 3.99992ZM1.45854 5.58325C1.41687 5.33325 1.5002 5.04159 1.66687 4.83325C1.83354 4.62492 2.1252 4.49992 2.3752 4.49992H4.6252V7.16659C4.6252 8.49992 5.1252 9.74992 5.95854 10.6666C2.7502 9.95825 1.70854 7.62492 1.45854 5.58325ZM10.8335 7.24992L11.3335 8.83325L10.0002 7.87492L8.62521 8.87492L9.1252 7.29159L7.7502 6.29159H9.41687L9.91687 4.70825L10.4169 6.29159H12.0835L10.8335 7.24992ZM18.5419 5.58325C18.2919 7.62492 17.2502 9.99992 14.0419 10.7083C14.8752 9.74992 15.3752 8.54159 15.3752 7.20825V4.54159H17.6252C17.9169 4.54159 18.1669 4.66659 18.3335 4.87492C18.5002 5.04159 18.5835 5.29159 18.5419 5.58325Z" fill="white"/>
</svg>
