<svg width="20" height="20" viewBox="0 0 20 20" fill="none" xmlns="http://www.w3.org/2000/svg">
<g clip-path="url(#clip0_16_696)">
<path d="M18.9312 0.524933C13.5874 -0.996942 10.8218 2.34368 5.49365 0.818683V9.23431C10.8374 10.7562 13.603 7.41556 18.9468 8.94056C18.3656 7.4042 17.5973 5.94529 16.6593 4.59681L18.9312 0.524933Z" fill="white"/>
<path d="M5.02197 18.5469V0.446875C5.02197 0.328356 4.97489 0.214692 4.89109 0.130887C4.80728 0.0470813 4.69362 0 4.5751 0C4.45658 0 4.34291 0.0470813 4.25911 0.130887C4.1753 0.214692 4.12822 0.328356 4.12822 0.446875V18.5469C2.4001 18.5906 1.06885 18.9 1.06885 19.2687C1.06885 19.6375 2.6376 20 4.5751 20C6.5126 20 8.08135 19.6875 8.08135 19.2687C8.08135 18.85 6.7501 18.5906 5.02197 18.5469Z" fill="white"/>
</g>
<defs>
<clipPath id="clip0_16_696">
<rect width="20" height="20" fill="white"/>
</clipPath>
</defs>
</svg>
