<svg width="174" height="45" viewBox="0 0 174 45" fill="none" xmlns="http://www.w3.org/2000/svg">
<g clip-path="url(#clip0_16_563)">
<path d="M31.9731 38.9555C30.8278 40.1009 28.9699 40.1009 27.8246 38.9555L23.7568 34.8878C24.4067 34.4911 25.2012 33.9233 26.0053 33.1312C26.8758 32.274 27.487 31.4216 27.9042 30.7393C29.2605 32.0956 30.6168 33.4519 31.9719 34.807C33.1172 35.9523 33.1172 37.8102 31.9719 38.9555H31.9731Z" fill="#15233B"/>
<path d="M10.0229 22.6696H4.73002C3.82608 22.6696 3.1836 23.5104 3.50589 24.355C4.94821 28.1345 9.44477 36.7627 19.8086 34.2068C30.051 31.6809 28.3338 20.853 27.0701 16.1789C26.7991 15.1767 25.5676 14.9367 24.877 15.7119L16.8159 24.7592C16.3982 25.2281 15.7179 25.3584 15.1564 25.0771L10.6452 22.8167C10.452 22.72 10.2389 22.6696 10.0229 22.6696Z" fill="url(#paint0_linear_16_563)"/>
<path d="M9.39673 10.3717C9.29977 10.9865 9.62455 11.6661 10.3704 11.8502L11.1594 12.0446C10.8433 12.1924 10.5323 12.3559 10.2268 12.5348C4.91063 15.6443 3.11538 22.4989 6.22486 27.8151C9.33442 33.131 16.189 34.9264 21.5051 31.817C26.8213 28.7075 28.6159 21.8529 25.5071 16.5377C25.2222 16.0505 24.8998 15.5816 24.5481 15.1461C24.1504 14.6543 24.2272 13.9334 24.719 13.5358C25.2115 13.1393 25.931 13.215 26.3293 13.7076C26.7529 14.2328 27.1418 14.795 27.4846 15.3815C31.2318 21.7881 29.068 30.0484 22.6614 33.7955V33.7946C16.2549 37.5416 7.99455 35.3776 4.24732 28.9713C0.500185 22.5647 2.66393 14.3044 9.07056 10.5573C9.17879 10.4939 9.28736 10.4318 9.39673 10.3717Z" fill="#15233B"/>
<path d="M14.277 5.46325C14.6246 4.05493 16.6267 4.05493 16.9744 5.46325L17.3499 6.98434C17.4735 7.48529 17.8647 7.87642 18.3656 8.00009L19.8867 8.3756C21.295 8.72326 21.295 10.7253 19.8867 11.073L18.3656 11.4485C17.8647 11.5722 17.4735 11.9633 17.3499 12.4642L16.9744 13.9853C16.6267 15.3937 14.6246 15.3937 14.277 13.9853L13.9015 12.4642C13.7778 11.9633 13.3867 11.5722 12.8857 11.4485L11.3646 11.073C9.9563 10.7253 9.9563 8.72326 11.3646 8.3756L12.8857 8.00009C13.3867 7.87642 13.7778 7.48529 13.9015 6.98434L14.277 5.46325Z" fill="url(#paint1_linear_16_563)"/>
<path d="M29.5625 6.83567C30.3631 6.75515 31.0771 7.33882 31.1582 8.13938L31.5498 12.0124C31.6218 12.7276 31.1009 13.3658 30.3857 13.4382C29.6704 13.5105 29.0315 12.9894 28.959 12.2741L28.873 11.4255L17.6885 25.8484C16.8865 26.8823 15.4311 27.1408 14.3223 26.446L10.1553 23.8347H2.97461V21.2302H10.1719C10.5903 21.2303 11.0015 21.3332 11.3691 21.529L11.5244 21.6189L15.6611 24.2116L26.8994 9.72141L25.9512 9.81712C25.2357 9.88941 24.5977 9.36851 24.5254 8.65305C24.4532 7.93768 24.9741 7.29956 25.6895 7.22727L29.5625 6.83567Z" fill="url(#paint2_linear_16_563)"/>
<mask id="mask0_16_563" style="mask-type:alpha" maskUnits="userSpaceOnUse" x="-1" y="15" width="17" height="15">
<path d="M0.934771 29.3057C-0.118844 27.168 -0.688709 24.8244 -0.734331 22.4415C-0.779953 20.0587 -0.300211 17.695 0.670804 15.5185L15.4922 22.1309L0.934771 29.3057Z" fill="#D9D9D9"/>
</mask>
<g mask="url(#mask0_16_563)">
<path d="M22.3893 33.95C15.8972 37.5471 7.68957 35.1917 4.09247 28.6997C0.495378 22.2076 2.85076 14 9.34282 10.4029C11.1931 9.37753 13.1964 8.81376 15.2976 8.7261C15.9295 8.69934 16.4632 9.1903 16.489 9.82288C16.5157 10.4548 16.0238 10.9892 15.3922 11.0142C13.6513 11.0869 11.9886 11.555 10.4526 12.4068C5.06557 15.3917 3.11138 22.2028 6.09636 27.5898C9.08134 32.9769 15.8924 34.9311 21.2794 31.9461C26.6665 28.9611 28.6207 22.1501 25.6364 16.7641C25.3629 16.2702 25.0507 15.7944 24.7092 15.3508C24.3231 14.8499 24.4165 14.1308 24.9174 13.7447C25.419 13.3595 26.1374 13.452 26.5242 13.9539C26.9354 14.4888 27.3112 15.0599 27.6403 15.6542C31.2374 22.1463 28.882 30.3539 22.3899 33.951L22.3893 33.95Z" fill="#15233B"/>
</g>
</g>
<path d="M53.9113 31.5L52.6831 27.468H46.5076L45.2795 31.5H41.4097L47.3882 14.4913H51.7794L57.7811 31.5H53.9113ZM51.8258 24.4555L50.5976 20.5162C50.5204 20.2536 50.4161 19.9176 50.2848 19.5082C50.1612 19.0911 50.0337 18.6701 49.9024 18.2453C49.7788 17.8127 49.6784 17.4381 49.6012 17.1214C49.5239 17.4381 49.4158 17.832 49.2768 18.3032C49.1455 18.7667 49.018 19.2069 48.8944 19.624C48.7708 20.0412 48.682 20.3385 48.6279 20.5162L47.4114 24.4555H51.8258ZM59.45 31.5V14.5608H63.0418V31.5H59.45Z" fill="url(#paint3_linear_16_563)"/>
<path d="M86.5552 23.0072C86.5552 24.2663 86.4046 25.4211 86.1034 26.4715C85.8099 27.5143 85.3541 28.418 84.7362 29.1827C84.1183 29.9474 83.3342 30.5461 82.3842 30.9786L86.4625 35.532H81.8628L78.7577 31.7317C78.7036 31.7317 78.6572 31.7317 78.6186 31.7317C78.58 31.7317 78.5375 31.7317 78.4912 31.7317C77.1085 31.7317 75.9113 31.527 74.8994 31.1177C73.8876 30.7005 73.0495 30.1058 72.3852 29.3334C71.7286 28.5609 71.2382 27.6379 70.9137 26.5642C70.5893 25.4906 70.4271 24.2972 70.4271 22.9841C70.4271 21.2307 70.7129 19.7051 71.2845 18.4075C71.8638 17.1021 72.7521 16.0902 73.9493 15.3719C75.1466 14.6535 76.6683 14.2943 78.5143 14.2943C80.3527 14.2943 81.8628 14.6535 83.0446 15.3719C84.2341 16.0902 85.1147 17.1021 85.6863 18.4075C86.2656 19.7129 86.5552 21.2461 86.5552 23.0072ZM74.1927 23.0072C74.1927 24.189 74.3394 25.2086 74.6329 26.066C74.9342 26.9157 75.4015 27.5722 76.0349 28.0357C76.6683 28.4914 77.487 28.7193 78.4912 28.7193C79.5108 28.7193 80.3373 28.4914 80.9706 28.0357C81.604 27.5722 82.0636 26.9157 82.3494 26.066C82.6429 25.2086 82.7897 24.189 82.7897 23.0072C82.7897 21.2307 82.4576 19.8326 81.7933 18.813C81.129 17.7934 80.036 17.2836 78.5143 17.2836C77.5025 17.2836 76.676 17.5153 76.0349 17.9788C75.4015 18.4345 74.9342 19.0911 74.6329 19.9485C74.3394 20.7981 74.1927 21.8177 74.1927 23.0072ZM101.201 18.5465V31.5H98.4896L98.0146 29.8432H97.8292C97.5511 30.2834 97.2035 30.6426 96.7864 30.9207C96.3693 31.1988 95.9097 31.4034 95.4076 31.5348C94.9056 31.6661 94.3842 31.7317 93.8435 31.7317C92.9166 31.7317 92.1094 31.5695 91.4219 31.2451C90.7345 30.913 90.1977 30.3993 89.8115 29.7041C89.433 29.0089 89.2437 28.1052 89.2437 26.9929V18.5465H92.7775V26.1124C92.7775 27.0393 92.9436 27.7383 93.2758 28.2095C93.6079 28.6807 94.137 28.9163 94.8631 28.9163C95.5814 28.9163 96.1453 28.754 96.5547 28.4296C96.9641 28.0975 97.2499 27.6147 97.4121 26.9813C97.582 26.3402 97.667 25.5601 97.667 24.6409V18.5465H101.201ZM116.206 25.0001C116.206 26.0815 116.059 27.0393 115.765 27.8735C115.479 28.7077 115.058 29.4145 114.502 29.9938C113.954 30.5654 113.29 30.9979 112.509 31.2914C111.737 31.585 110.864 31.7317 109.891 31.7317C108.98 31.7317 108.141 31.585 107.377 31.2914C106.62 30.9979 105.959 30.5654 105.395 29.9938C104.839 29.4145 104.407 28.7077 104.098 27.8735C103.797 27.0393 103.646 26.0815 103.646 25.0001C103.646 23.5634 103.901 22.3468 104.411 21.3504C104.92 20.354 105.647 19.597 106.589 19.0795C107.531 18.562 108.655 18.3032 109.96 18.3032C111.173 18.3032 112.247 18.562 113.181 19.0795C114.124 19.597 114.861 20.354 115.394 21.3504C115.935 22.3468 116.206 23.5634 116.206 25.0001ZM107.249 25.0001C107.249 25.8497 107.342 26.5642 107.527 27.1436C107.713 27.7229 108.002 28.1593 108.396 28.4528C108.79 28.7463 109.304 28.8931 109.937 28.8931C110.563 28.8931 111.069 28.7463 111.455 28.4528C111.849 28.1593 112.135 27.7229 112.313 27.1436C112.498 26.5642 112.591 25.8497 112.591 25.0001C112.591 24.1427 112.498 23.4321 112.313 22.8682C112.135 22.2966 111.849 21.8679 111.455 21.5821C111.061 21.2963 110.548 21.1534 109.914 21.1534C108.98 21.1534 108.3 21.474 107.875 22.1151C107.458 22.7562 107.249 23.7179 107.249 25.0001ZM124.108 28.9163C124.494 28.9163 124.869 28.8776 125.232 28.8004C125.602 28.7232 125.969 28.6266 126.332 28.5107V31.1408C125.954 31.3108 125.483 31.4498 124.919 31.5579C124.363 31.6738 123.753 31.7317 123.088 31.7317C122.316 31.7317 121.621 31.6081 121.003 31.361C120.392 31.1061 119.91 30.6696 119.554 30.0517C119.207 29.4261 119.033 28.5571 119.033 27.4448V21.1998H117.341V19.7051L119.288 18.5233L120.308 15.789H122.567V18.5465H126.193V21.1998H122.567V27.4448C122.567 27.9391 122.706 28.3099 122.984 28.5571C123.27 28.7965 123.644 28.9163 124.108 28.9163ZM132.022 18.5465V31.5H128.488V18.5465H132.022ZM130.261 13.4717C130.786 13.4717 131.238 13.5953 131.616 13.8425C131.995 14.0819 132.184 14.5338 132.184 15.1981C132.184 15.8546 131.995 16.3104 131.616 16.5653C131.238 16.8124 130.786 16.936 130.261 16.936C129.728 16.936 129.272 16.8124 128.893 16.5653C128.523 16.3104 128.337 15.8546 128.337 15.1981C128.337 14.5338 128.523 14.0819 128.893 13.8425C129.272 13.5953 129.728 13.4717 130.261 13.4717ZM140.608 18.3032C141.805 18.3032 142.836 18.5349 143.701 18.9984C144.566 19.4541 145.234 20.1184 145.706 20.9912C146.177 21.8641 146.412 22.93 146.412 24.189V25.9038H138.059C138.097 26.9002 138.395 27.6842 138.951 28.2558C139.515 28.8197 140.295 29.1016 141.291 29.1016C142.118 29.1016 142.875 29.0167 143.562 28.8467C144.25 28.6768 144.956 28.4219 145.682 28.082V30.8164C145.041 31.1331 144.369 31.3648 143.666 31.5116C142.971 31.6583 142.125 31.7317 141.129 31.7317C139.831 31.7317 138.68 31.4923 137.676 31.0134C136.68 30.5345 135.896 29.8045 135.324 28.8236C134.76 27.8426 134.478 26.6067 134.478 25.1159C134.478 23.602 134.733 22.343 135.243 21.3388C135.761 20.3269 136.479 19.57 137.398 19.0679C138.317 18.5581 139.387 18.3032 140.608 18.3032ZM140.631 20.8174C139.943 20.8174 139.372 21.0376 138.916 21.4779C138.468 21.9181 138.209 22.6094 138.14 23.5518H143.099C143.091 23.0266 142.994 22.5592 142.809 22.1499C142.631 21.7405 142.361 21.4161 141.998 21.1766C141.643 20.9372 141.187 20.8174 140.631 20.8174ZM156.169 18.3032C157.551 18.3032 158.663 18.6817 159.505 19.4387C160.347 20.1879 160.768 21.3929 160.768 23.0536V31.5H157.234V23.9341C157.234 23.0072 157.065 22.3082 156.725 21.837C156.393 21.3659 155.867 21.1303 155.149 21.1303C154.068 21.1303 153.33 21.4972 152.936 22.231C152.542 22.9648 152.345 24.023 152.345 25.4056V31.5H148.811V18.5465H151.511L151.986 20.2034H152.183C152.461 19.7554 152.805 19.3923 153.214 19.1142C153.631 18.8362 154.091 18.6315 154.593 18.5002C155.103 18.3689 155.628 18.3032 156.169 18.3032ZM169.389 28.9163C169.775 28.9163 170.15 28.8776 170.513 28.8004C170.884 28.7232 171.25 28.6266 171.614 28.5107V31.1408C171.235 31.3108 170.764 31.4498 170.2 31.5579C169.644 31.6738 169.034 31.7317 168.369 31.7317C167.597 31.7317 166.902 31.6081 166.284 31.361C165.674 31.1061 165.191 30.6696 164.836 30.0517C164.488 29.4261 164.314 28.5571 164.314 27.4448V21.1998H162.623V19.7051L164.569 18.5233L165.589 15.789H167.848V18.5465H171.474V21.1998H167.848V27.4448C167.848 27.9391 167.987 28.3099 168.265 28.5571C168.551 28.7965 168.925 28.9163 169.389 28.9163Z" fill="#15233B"/>
<defs>
<linearGradient id="paint0_linear_16_563" x1="13.2781" y1="19.1805" x2="20.1454" y2="33.9999" gradientUnits="userSpaceOnUse">
<stop stop-color="#61B0F7" stop-opacity="0.9"/>
<stop offset="1" stop-color="white" stop-opacity="0"/>
</linearGradient>
<linearGradient id="paint1_linear_16_563" x1="15.6257" y1="0" x2="15.6257" y2="19.7371" gradientUnits="userSpaceOnUse">
<stop stop-color="#0134DA"/>
<stop offset="1" stop-color="#61B0F7"/>
</linearGradient>
<linearGradient id="paint2_linear_16_563" x1="17.2291" y1="8.05342" x2="17.2291" y2="27.1743" gradientUnits="userSpaceOnUse">
<stop stop-color="#0134DA"/>
<stop offset="1" stop-color="#61B0F7"/>
</linearGradient>
<linearGradient id="paint3_linear_16_563" x1="53.4097" y1="9.5" x2="53.4097" y2="35.8857" gradientUnits="userSpaceOnUse">
<stop stop-color="#0134DA"/>
<stop offset="1" stop-color="#61B0F7"/>
</linearGradient>
<clipPath id="clip0_16_563">
<rect width="35.4098" height="45" fill="white"/>
</clipPath>
</defs>
</svg>
