<svg width="360" height="138" viewBox="0 0 360 138" fill="none" xmlns="http://www.w3.org/2000/svg">
<mask id="mask0_16_610" style="mask-type:alpha" maskUnits="userSpaceOnUse" x="81" y="16" width="198" height="106">
<rect x="81.0327" y="16" width="197.935" height="105.566" fill="#D9D9D9"/>
</mask>
<g mask="url(#mask0_16_610)">
<mask id="path-2-inside-1_16_610" fill="white">
<path d="M86.9536 117.529C84.0374 117.529 81.6588 115.163 81.8124 112.251C82.3987 101.138 84.8329 90.194 89.0234 79.8887C93.8758 67.9553 100.988 57.1123 109.954 47.9789C118.921 38.8454 129.565 31.6004 141.28 26.6574C151.337 22.4142 162.013 19.9387 172.855 19.3228C175.821 19.1544 178.231 21.5784 178.231 24.549C178.231 27.5196 175.821 29.9099 172.856 30.099C163.401 30.7022 154.096 32.8935 145.321 36.596C134.888 40.9984 125.407 47.451 117.422 55.5856C109.436 63.7201 103.102 73.3772 98.78 84.0054C95.1204 93.0054 92.9647 102.552 92.39 112.252C92.2175 115.163 89.8698 117.529 86.9536 117.529Z"/>
</mask>
<path d="M86.9536 117.529C84.0374 117.529 81.6588 115.163 81.8124 112.251C82.3987 101.138 84.8329 90.194 89.0234 79.8887C93.8758 67.9553 100.988 57.1123 109.954 47.9789C118.921 38.8454 129.565 31.6004 141.28 26.6574C151.337 22.4142 162.013 19.9387 172.855 19.3228C175.821 19.1544 178.231 21.5784 178.231 24.549C178.231 27.5196 175.821 29.9099 172.856 30.099C163.401 30.7022 154.096 32.8935 145.321 36.596C134.888 40.9984 125.407 47.451 117.422 55.5856C109.436 63.7201 103.102 73.3772 98.78 84.0054C95.1204 93.0054 92.9647 102.552 92.39 112.252C92.2175 115.163 89.8698 117.529 86.9536 117.529Z" stroke="#FFA800" stroke-width="16.5287" stroke-linecap="round" stroke-linejoin="round" mask="url(#path-2-inside-1_16_610)"/>
<mask id="path-3-inside-2_16_610" fill="white">
<path d="M183.653 24.4756C183.77 21.5647 186.224 19.2837 189.126 19.5491C200.025 20.546 210.678 23.3223 220.646 27.7627C223.349 28.9669 224.363 32.2245 222.974 34.8373C221.615 37.3948 218.46 38.3719 215.809 37.2061C207.224 33.4315 198.076 31.0387 188.717 30.1199C185.812 29.8347 183.537 27.3926 183.653 24.4756Z"/>
</mask>
<path d="M183.653 24.4756C183.77 21.5647 186.224 19.2837 189.126 19.5491C200.025 20.546 210.678 23.3223 220.646 27.7627C223.349 28.9669 224.363 32.2245 222.974 34.8373C221.615 37.3948 218.46 38.3719 215.809 37.2061C207.224 33.4315 198.076 31.0387 188.717 30.1199C185.812 29.8347 183.537 27.3926 183.653 24.4756Z" stroke="#FFC960" stroke-width="16.5287" stroke-linecap="round" stroke-linejoin="round" mask="url(#path-3-inside-2_16_610)"/>
<mask id="path-4-inside-3_16_610" fill="white">
<path d="M227.759 37.2742C229.266 34.8004 232.487 33.9799 234.904 35.5762C242.29 40.4542 248.967 46.2938 254.752 52.9346C256.714 55.1872 256.245 58.6017 253.854 60.3922C251.522 62.1382 248.234 61.6815 246.31 59.4939C241.382 53.8905 235.738 48.935 229.518 44.7507C227.059 43.0963 226.217 39.8057 227.759 37.2742Z"/>
</mask>
<path d="M227.759 37.2742C229.266 34.8004 232.487 33.9799 234.904 35.5762C242.29 40.4542 248.967 46.2938 254.752 52.9346C256.714 55.1872 256.245 58.6017 253.854 60.3922C251.522 62.1382 248.234 61.6815 246.31 59.4939C241.382 53.8905 235.738 48.935 229.518 44.7507C227.059 43.0963 226.217 39.8057 227.759 37.2742Z" stroke="#FFEB3A" stroke-width="16.5287" stroke-linecap="round" stroke-linejoin="round" mask="url(#path-4-inside-3_16_610)"/>
<mask id="path-5-inside-4_16_610" fill="white">
<path d="M257.192 64.6441C259.625 63.0348 262.914 63.666 264.431 66.1581C272.937 80.1304 277.707 95.9889 278.296 112.254C278.404 115.221 275.933 117.581 272.965 117.522C269.993 117.464 267.651 115.004 267.522 112.035C266.914 98.008 262.816 84.3384 255.588 72.2247C254.057 69.6579 254.699 66.2929 257.192 64.6441Z"/>
</mask>
<path d="M257.192 64.6441C259.625 63.0348 262.914 63.666 264.431 66.1581C272.937 80.1304 277.707 95.9889 278.296 112.254C278.404 115.221 275.933 117.581 272.965 117.522C269.993 117.464 267.651 115.004 267.522 112.035C266.914 98.008 262.816 84.3384 255.588 72.2247C254.057 69.6579 254.699 66.2929 257.192 64.6441Z" stroke="#7FE47E" stroke-width="16.5287" stroke-linecap="round" stroke-linejoin="round" mask="url(#path-5-inside-4_16_610)"/>
<g filter="url(#filter0_d_16_610)">
<circle cx="241.976" cy="46.9756" r="9.97583" fill="white"/>
<circle cx="241.976" cy="46.9756" r="8.97583" stroke="#FEEA3A" stroke-width="2"/>
</g>
</g>
<path d="M143.967 112.557C141.872 112.543 139.851 112.192 137.902 111.503C135.967 110.814 134.23 109.693 132.693 108.143C131.155 106.592 129.935 104.537 129.034 101.978C128.146 99.4201 127.702 96.2784 127.702 92.5535C127.715 89.1335 128.106 86.078 128.875 83.387C129.657 80.6828 130.77 78.3895 132.215 76.5072C133.673 74.6248 135.417 73.1932 137.445 72.2123C139.473 71.2181 141.746 70.721 144.265 70.721C146.982 70.721 149.382 71.2512 151.463 72.3117C153.544 73.3589 155.214 74.7839 156.474 76.5867C157.746 78.3895 158.515 80.4111 158.78 82.6513H150.29C149.958 81.2329 149.262 80.1194 148.202 79.3108C147.142 78.5022 145.829 78.0979 144.265 78.0979C141.614 78.0979 139.599 79.2512 138.22 81.5577C136.855 83.8642 136.159 86.9993 136.132 90.9628H136.411C137.021 89.7565 137.842 88.7292 138.876 87.8808C139.924 87.0192 141.11 86.363 142.436 85.9123C143.775 85.4483 145.186 85.2163 146.671 85.2163C149.084 85.2163 151.231 85.7864 153.113 86.9264C154.996 88.0531 156.48 89.6041 157.567 91.5792C158.654 93.5543 159.198 95.8145 159.198 98.3596C159.198 101.117 158.555 103.569 157.269 105.717C155.996 107.864 154.214 109.548 151.92 110.767C149.64 111.973 146.989 112.57 143.967 112.557ZM143.927 105.796C145.253 105.796 146.439 105.478 147.486 104.842C148.533 104.205 149.355 103.344 149.952 102.257C150.548 101.17 150.847 99.9503 150.847 98.5982C150.847 97.2461 150.548 96.0332 149.952 94.9595C149.369 93.8857 148.56 93.0307 147.526 92.3944C146.492 91.7582 145.312 91.44 143.987 91.44C142.992 91.44 142.071 91.6256 141.223 91.9968C140.388 92.3679 139.652 92.8849 139.016 93.5477C138.393 94.2105 137.902 94.9794 137.544 95.8542C137.186 96.7159 137.007 97.6372 137.007 98.6181C137.007 99.9305 137.306 101.13 137.902 102.217C138.512 103.304 139.334 104.172 140.368 104.822C141.415 105.471 142.601 105.796 143.927 105.796ZM164.686 104.842V98.0614L181.687 71.2777H187.532V80.6629H184.073L173.355 97.6239V97.9421H197.514V104.842H164.686ZM184.232 112V102.774L184.391 99.7714V71.2777H192.464V112H184.232ZM205.981 99.8234L202.233 113.749H200.149L203.897 99.8234H205.981ZM212.185 100.369V112H209.726V102.703H209.657L206.994 104.373V102.192L209.873 100.369H212.185ZM219.51 112.256C218.533 112.252 217.692 112.011 216.988 111.534C216.288 111.057 215.748 110.366 215.369 109.461C214.995 108.556 214.809 107.468 214.813 106.196C214.813 104.927 215 103.846 215.375 102.953C215.754 102.059 216.293 101.38 216.994 100.914C217.698 100.444 218.537 100.21 219.51 100.21C220.483 100.21 221.32 100.444 222.02 100.914C222.724 101.383 223.266 102.065 223.644 102.958C224.023 103.848 224.21 104.927 224.207 106.196C224.207 107.472 224.017 108.562 223.639 109.467C223.264 110.372 222.726 111.063 222.026 111.54C221.325 112.017 220.487 112.256 219.51 112.256ZM219.51 110.217C220.176 110.217 220.708 109.882 221.106 109.211C221.503 108.541 221.7 107.536 221.696 106.196C221.696 105.313 221.605 104.579 221.424 103.992C221.246 103.405 220.992 102.964 220.663 102.669C220.337 102.373 219.953 102.226 219.51 102.226C218.847 102.226 218.317 102.557 217.919 103.22C217.522 103.882 217.321 104.874 217.317 106.196C217.317 107.089 217.406 107.835 217.584 108.433C217.766 109.028 218.022 109.475 218.351 109.774C218.681 110.069 219.067 110.217 219.51 110.217ZM230.521 112.256C229.544 112.252 228.703 112.011 227.999 111.534C227.299 111.057 226.759 110.366 226.38 109.461C226.006 108.556 225.82 107.468 225.824 106.196C225.824 104.927 226.011 103.846 226.386 102.953C226.765 102.059 227.304 101.38 228.005 100.914C228.709 100.444 229.548 100.21 230.521 100.21C231.494 100.21 232.33 100.444 233.031 100.914C233.735 101.383 234.277 102.065 234.655 102.958C235.034 103.848 235.221 104.927 235.217 106.196C235.217 107.472 235.028 108.562 234.65 109.467C234.275 110.372 233.737 111.063 233.037 111.54C232.336 112.017 231.497 112.256 230.521 112.256ZM230.521 110.217C231.187 110.217 231.719 109.882 232.117 109.211C232.514 108.541 232.711 107.536 232.707 106.196C232.707 105.313 232.616 104.579 232.435 103.992C232.257 103.405 232.003 102.964 231.674 102.669C231.348 102.373 230.964 102.226 230.521 102.226C229.858 102.226 229.328 102.557 228.93 103.22C228.533 103.882 228.332 104.874 228.328 106.196C228.328 107.089 228.417 107.835 228.595 108.433C228.777 109.028 229.033 109.475 229.362 109.774C229.691 110.069 230.078 110.217 230.521 110.217Z" fill="#1E1B39"/>
<defs>
<filter id="filter0_d_16_610" x="227.344" y="36.9998" width="29.2647" height="29.2647" filterUnits="userSpaceOnUse" color-interpolation-filters="sRGB">
<feFlood flood-opacity="0" result="BackgroundImageFix"/>
<feColorMatrix in="SourceAlpha" type="matrix" values="0 0 0 0 0 0 0 0 0 0 0 0 0 0 0 0 0 0 127 0" result="hardAlpha"/>
<feOffset dy="4.65653"/>
<feGaussianBlur stdDeviation="2.32826"/>
<feComposite in2="hardAlpha" operator="out"/>
<feColorMatrix type="matrix" values="0 0 0 0 0.0509804 0 0 0 0 0.0392157 0 0 0 0 0.172549 0 0 0 0.08 0"/>
<feBlend mode="normal" in2="BackgroundImageFix" result="effect1_dropShadow_16_610"/>
<feBlend mode="normal" in="SourceGraphic" in2="effect1_dropShadow_16_610" result="shape"/>
</filter>
</defs>
</svg>
