<svg width="312" height="224" viewBox="0 0 312 224" fill="none" xmlns="http://www.w3.org/2000/svg">
<path d="M156.789 25.1052L65.645 91.6897L99.483 199.207H214.096L248.48 91.6897L156.789 25.1052Z" stroke="#BFBFBF" stroke-width="0.545775"/>
<path d="M156.845 43.6616L83.9292 97.0962L111 183.38H202.69L230.197 97.0962L156.845 43.6616Z" stroke="#BFBFBF" stroke-width="0.545775"/>
<path d="M156.898 61.1266L102.484 101.203L122.686 165.915H191.111L211.639 101.203L156.898 61.1266Z" stroke="#BFBFBF" stroke-width="0.545775"/>
<path d="M156.958 81.8657L122.132 107.748L135.061 149.542H178.854L191.991 107.748L156.958 81.8657Z" stroke="#BFBFBF" stroke-width="0.545775"/>
<path d="M157.014 100.422L140.689 112.945L146.75 133.168H167.278L173.436 112.945L157.014 100.422Z" stroke="#BFBFBF" stroke-width="0.545775"/>
<path d="M214.096 199.207L157.881 120.616M157.881 120.616L248.48 91.6896M157.881 120.616L156.789 25.6509M157.881 120.616L99.483 199.207M157.881 120.616L65.645 91.6896" stroke="#BFBFBF" stroke-width="0.545775"/>
<path d="M231.56 96.0567L158.426 35.4757L90.75 96.0567L107.669 187.747L190.081 173.557L231.56 96.0567Z" fill="url(#paint0_radial_187_182)" fill-opacity="0.3" stroke="#BABABA" stroke-width="1.09155"/>
<path d="M222.828 100.422L158.427 55.1232L115.856 107.518L119.677 173.556L175.346 146.268L222.828 100.422Z" fill="url(#paint1_radial_187_182)" fill-opacity="0.3"/>
<path d="M222.828 100.422L158.427 55.1232L115.856 107.518L119.677 173.556L175.346 146.268L222.828 100.422Z" fill="url(#paint2_linear_187_182)" fill-opacity="0.45"/>
<path d="M222.828 100.422L158.427 55.1232L115.856 107.518L119.677 173.556L175.346 146.268L222.828 100.422Z" stroke="#0047CA" stroke-width="1.09155"/>
<path d="M261.94 94.866H260.194L262.855 87.1571H264.955L267.613 94.866H265.866L263.935 88.9187H263.875L261.94 94.866ZM261.831 91.8359H265.956V93.1081H261.831V91.8359ZM270.17 87.1571V94.866H268.54V87.1571H270.17ZM278.146 89.3742C278.116 89.0706 277.987 88.8347 277.759 88.6665C277.53 88.4984 277.22 88.4143 276.829 88.4143C276.563 88.4143 276.338 88.452 276.155 88.5273C275.972 88.6 275.831 88.7017 275.734 88.8322C275.638 88.9626 275.591 89.1107 275.591 89.2763C275.586 89.4143 275.614 89.5348 275.677 89.6377C275.742 89.7406 275.831 89.8296 275.944 89.9049C276.057 89.9777 276.188 90.0417 276.336 90.0969C276.484 90.1496 276.642 90.1948 276.81 90.2324L277.503 90.398C277.839 90.4733 278.148 90.5737 278.429 90.6991C278.71 90.8246 278.953 90.9789 279.159 91.1621C279.365 91.3453 279.524 91.5611 279.637 91.8095C279.752 92.058 279.811 92.3428 279.814 92.664C279.811 93.1357 279.691 93.5448 279.452 93.8911C279.217 94.2349 278.875 94.5021 278.429 94.6928C277.984 94.881 277.449 94.9751 276.821 94.9751C276.199 94.9751 275.657 94.8798 275.195 94.6891C274.736 94.4983 274.377 94.216 274.119 93.8421C273.863 93.4657 273.729 93.0002 273.716 92.4457H275.293C275.311 92.7041 275.385 92.9199 275.515 93.0931C275.648 93.2637 275.825 93.393 276.046 93.4808C276.269 93.5661 276.522 93.6088 276.803 93.6088C277.079 93.6088 277.318 93.5686 277.521 93.4883C277.727 93.408 277.887 93.2963 278 93.1533C278.112 93.0103 278.169 92.8459 278.169 92.6602C278.169 92.4871 278.117 92.3415 278.015 92.2236C277.914 92.1056 277.766 92.0053 277.57 91.9225C277.377 91.8397 277.14 91.7644 276.859 91.6966L276.02 91.4858C275.37 91.3277 274.857 91.0806 274.48 90.7443C274.104 90.4081 273.917 89.9551 273.919 89.3855C273.917 88.9187 274.041 88.511 274.292 88.1622C274.545 87.8134 274.893 87.5411 275.335 87.3454C275.776 87.1496 276.278 87.0518 276.84 87.0518C277.412 87.0518 277.912 87.1496 278.338 87.3454C278.767 87.5411 279.101 87.8134 279.34 88.1622C279.578 88.511 279.701 88.915 279.708 89.3742H278.146ZM282.333 93.2022L282.337 91.2788H282.57L284.422 89.0844H286.263L283.775 91.9902H283.394L282.333 93.2022ZM280.88 94.866V87.1571H282.483V94.866H280.88ZM284.493 94.866L282.792 92.3478L283.861 91.2148L286.372 94.866H284.493ZM287.049 94.866V89.0844H288.653V94.866H287.049ZM287.855 88.3391C287.616 88.3391 287.412 88.26 287.241 88.1019C287.073 87.9413 286.989 87.7494 286.989 87.526C286.989 87.3052 287.073 87.1157 287.241 86.9577C287.412 86.7971 287.616 86.7168 287.855 86.7168C288.093 86.7168 288.296 86.7971 288.465 86.9577C288.635 87.1157 288.721 87.3052 288.721 87.526C288.721 87.7494 288.635 87.9413 288.465 88.1019C288.296 88.26 288.093 88.3391 287.855 88.3391ZM291.541 87.1571V94.866H289.937V87.1571H291.541ZM294.429 87.1571V94.866H292.825V87.1571H294.429ZM301.087 94.866L302.352 87.1571H303.557L302.292 94.866H301.087ZM297.636 92.9538L297.835 91.7493H303.858L303.658 92.9538H297.636ZM298.377 94.866L299.642 87.1571H300.847L299.582 94.866H298.377ZM298.076 90.2738L298.279 89.0693H304.302L304.099 90.2738H298.076ZM305.035 94.866V93.6916L307.779 91.1508C308.012 90.925 308.208 90.7217 308.366 90.541C308.527 90.3604 308.648 90.1835 308.731 90.0103C308.814 89.8347 308.856 89.6452 308.856 89.4419C308.856 89.2161 308.804 89.0216 308.701 88.8585C308.598 88.6929 308.458 88.5662 308.28 88.4783C308.101 88.388 307.899 88.3428 307.674 88.3428C307.438 88.3428 307.232 88.3905 307.056 88.4859C306.881 88.5812 306.745 88.718 306.65 88.8962C306.554 89.0743 306.507 89.2864 306.507 89.5323H304.96C304.96 89.0279 305.074 88.59 305.302 88.2186C305.531 87.8472 305.851 87.5599 306.262 87.3566C306.674 87.1534 307.148 87.0518 307.685 87.0518C308.237 87.0518 308.717 87.1496 309.127 87.3454C309.538 87.5386 309.858 87.8071 310.086 88.1509C310.315 88.4946 310.429 88.8886 310.429 89.3328C310.429 89.6239 310.371 89.9112 310.256 90.1948C310.143 90.4783 309.941 90.7932 309.65 91.1395C309.359 91.4833 308.948 91.8961 308.419 92.3779L307.293 93.4808V93.5335H310.531V94.866H305.035Z" fill="black"/>
<path d="M139.687 13H137.94L140.601 5.29118H142.702L145.359 13H143.613L141.682 7.05277H141.621L139.687 13ZM139.578 9.96992H143.703V11.2422H139.578V9.96992ZM147.917 5.29118V13H146.287V5.29118H147.917ZM155.893 7.50822C155.863 7.20459 155.734 6.9687 155.505 6.80057C155.277 6.63245 154.967 6.54838 154.575 6.54838C154.309 6.54838 154.085 6.58602 153.902 6.6613C153.719 6.73408 153.578 6.83571 153.48 6.96619C153.385 7.09668 153.337 7.24474 153.337 7.41035C153.332 7.54837 153.361 7.66882 153.424 7.77171C153.489 7.87459 153.578 7.96367 153.691 8.03895C153.804 8.11173 153.934 8.17572 154.082 8.23092C154.23 8.28362 154.389 8.32879 154.557 8.36643L155.249 8.53205C155.586 8.60733 155.894 8.7077 156.175 8.83317C156.456 8.95864 156.7 9.11297 156.905 9.29615C157.111 9.47934 157.271 9.69515 157.383 9.94357C157.499 10.192 157.558 10.4768 157.56 10.798C157.558 11.2698 157.437 11.6788 157.199 12.0251C156.963 12.3689 156.622 12.6361 156.175 12.8269C155.731 13.0151 155.195 13.1092 154.568 13.1092C153.946 13.1092 153.404 13.0138 152.942 12.8231C152.483 12.6324 152.124 12.3501 151.865 11.9762C151.609 11.5998 151.475 11.1343 151.463 10.5797H153.04C153.057 10.8382 153.131 11.054 153.262 11.2271C153.395 11.3978 153.572 11.527 153.793 11.6148C154.016 11.7001 154.268 11.7428 154.549 11.7428C154.825 11.7428 155.065 11.7027 155.268 11.6224C155.474 11.542 155.633 11.4304 155.746 11.2873C155.859 11.1443 155.916 10.9799 155.916 10.7943C155.916 10.6211 155.864 10.4756 155.761 10.3576C155.661 10.2397 155.513 10.1393 155.317 10.0565C155.124 9.97369 154.887 9.89841 154.606 9.83065L153.766 9.61986C153.116 9.46177 152.603 9.2146 152.227 8.87834C151.85 8.54209 151.663 8.08914 151.666 7.51951C151.663 7.05277 151.788 6.64499 152.039 6.29619C152.292 5.94739 152.64 5.67512 153.081 5.47939C153.523 5.28365 154.025 5.18579 154.587 5.18579C155.159 5.18579 155.658 5.28365 156.085 5.47939C156.514 5.67512 156.848 5.94739 157.086 6.29619C157.325 6.64499 157.447 7.049 157.455 7.50822H155.893ZM160.08 11.3363L160.083 9.41284H160.317L162.169 7.21839H164.009L161.521 10.1242H161.141L160.08 11.3363ZM158.627 13V5.29118H160.23V13H158.627ZM162.24 13L160.539 10.4818L161.608 9.34885L164.118 13H162.24ZM164.796 13V7.21839H166.399V13H164.796ZM165.601 6.4731C165.363 6.4731 165.158 6.39406 164.988 6.23596C164.82 6.07536 164.736 5.8834 164.736 5.66006C164.736 5.43924 164.82 5.24978 164.988 5.09169C165.158 4.93109 165.363 4.85079 165.601 4.85079C165.84 4.85079 166.043 4.93109 166.211 5.09169C166.382 5.24978 166.467 5.43924 166.467 5.66006C166.467 5.8834 166.382 6.07536 166.211 6.23596C166.043 6.39406 165.84 6.4731 165.601 6.4731ZM169.287 5.29118V13H167.684V5.29118H169.287ZM172.175 5.29118V13H170.572V5.29118H172.175ZM178.834 13L180.099 5.29118H181.303L180.038 13H178.834ZM175.382 11.0879L175.582 9.88335H181.604L181.405 11.0879H175.382ZM176.124 13L177.389 5.29118H178.593L177.328 13H176.124ZM175.823 8.40783L176.026 7.20333H182.049L181.845 8.40783H175.823ZM186.135 5.29118V13H184.506V6.83822H184.46L182.695 7.94485V6.49945L184.603 5.29118H186.135Z" fill="black"/>
<path d="M75.2853 218.211H73.5388L76.2 210.502H78.3004L80.9578 218.211H79.2113L77.2803 212.264H77.2201L75.2853 218.211ZM75.1762 215.181H79.3016V216.453H75.1762V215.181ZM83.5155 210.502V218.211H81.8856V210.502H83.5155ZM91.4916 212.72C91.4614 212.416 91.3322 212.18 91.1039 212.012C90.8755 211.844 90.5656 211.76 90.1741 211.76C89.9081 211.76 89.6835 211.797 89.5004 211.873C89.3172 211.945 89.1766 212.047 89.0788 212.177C88.9834 212.308 88.9357 212.456 88.9357 212.622C88.9307 212.76 88.9596 212.88 89.0223 212.983C89.0876 213.086 89.1766 213.175 89.2896 213.25C89.4025 213.323 89.533 213.387 89.681 213.442C89.8291 213.495 89.9872 213.54 90.1553 213.578L90.8479 213.743C91.1842 213.819 91.4928 213.919 91.7739 214.044C92.0549 214.17 92.2983 214.324 92.5041 214.507C92.7099 214.691 92.8692 214.906 92.9821 215.155C93.0976 215.403 93.1565 215.688 93.159 216.009C93.1565 216.481 93.0361 216.89 92.7977 217.236C92.5618 217.58 92.2205 217.847 91.7739 218.038C91.3297 218.226 90.7939 218.32 90.1666 218.32C89.5443 218.32 89.0022 218.225 88.5405 218.034C88.0813 217.844 87.7225 217.561 87.464 217.187C87.208 216.811 87.0738 216.346 87.0612 215.791H88.6384C88.656 216.049 88.73 216.265 88.8605 216.438C88.9935 216.609 89.1704 216.738 89.3912 216.826C89.6145 216.911 89.8667 216.954 90.1478 216.954C90.4238 216.954 90.6635 216.914 90.8667 216.834C91.0725 216.753 91.2318 216.642 91.3448 216.499C91.4577 216.356 91.5141 216.191 91.5141 216.006C91.5141 215.832 91.4627 215.687 91.3598 215.569C91.2594 215.451 91.1114 215.351 90.9156 215.268C90.7224 215.185 90.4853 215.11 90.2042 215.042L89.3649 214.831C88.7149 214.673 88.2018 214.426 87.8253 214.09C87.4489 213.753 87.262 213.3 87.2645 212.731C87.262 212.264 87.3862 211.856 87.6371 211.507C87.8906 211.159 88.2381 210.886 88.6798 210.691C89.1214 210.495 89.6233 210.397 90.1854 210.397C90.7576 210.397 91.2569 210.495 91.6835 210.691C92.1126 210.886 92.4464 211.159 92.6848 211.507C92.9232 211.856 93.0461 212.26 93.0536 212.72H91.4916ZM95.6781 216.548L95.6819 214.624H95.9153L97.7672 212.43H99.6078L97.1198 215.336H96.7396L95.6781 216.548ZM94.2252 218.211V210.502H95.8287V218.211H94.2252ZM97.8387 218.211L96.1374 215.693L97.2064 214.56L99.717 218.211H97.8387ZM100.395 218.211V212.43H101.998V218.211H100.395ZM101.2 211.684C100.962 211.684 100.757 211.605 100.586 211.447C100.418 211.287 100.334 211.095 100.334 210.871C100.334 210.651 100.418 210.461 100.586 210.303C100.757 210.142 100.962 210.062 101.2 210.062C101.438 210.062 101.642 210.142 101.81 210.303C101.98 210.461 102.066 210.651 102.066 210.871C102.066 211.095 101.98 211.287 101.81 211.447C101.642 211.605 101.438 211.684 101.2 211.684ZM104.886 210.502V218.211H103.283V210.502H104.886ZM107.774 210.502V218.211H106.17V210.502H107.774ZM114.433 218.211L115.697 210.502H116.902L115.637 218.211H114.433ZM110.981 216.299L111.18 215.095H117.203L117.003 216.299H110.981ZM111.722 218.211L112.987 210.502H114.192L112.927 218.211H111.722ZM111.421 213.619L111.625 212.415H117.647L117.444 213.619H111.421ZM118.264 216.856V215.573L121.482 210.502H122.588V212.279H121.933L119.905 215.49V215.55H124.478V216.856H118.264ZM121.964 218.211V216.465L121.994 215.896V210.502H123.522V218.211H121.964Z" fill="black"/>
<path d="M221.577 209.203V201.494H223.207V207.859H226.512V209.203H221.577ZM230.173 209.315C229.589 209.315 229.083 209.191 228.657 208.943C228.232 208.692 227.905 208.343 227.674 207.896C227.443 207.447 227.328 206.927 227.328 206.334C227.328 205.737 227.443 205.215 227.674 204.768C227.905 204.319 228.232 203.97 228.657 203.722C229.083 203.471 229.589 203.346 230.173 203.346C230.758 203.346 231.262 203.471 231.687 203.722C232.113 203.97 232.442 204.319 232.673 204.768C232.904 205.215 233.019 205.737 233.019 206.334C233.019 206.927 232.904 207.447 232.673 207.896C232.442 208.343 232.113 208.692 231.687 208.943C231.262 209.191 230.758 209.315 230.173 209.315ZM230.181 208.073C230.447 208.073 230.669 207.998 230.847 207.847C231.025 207.694 231.16 207.486 231.25 207.223C231.343 206.959 231.389 206.659 231.389 206.323C231.389 205.987 231.343 205.687 231.25 205.423C231.16 205.16 231.025 204.952 230.847 204.799C230.669 204.645 230.447 204.569 230.181 204.569C229.912 204.569 229.687 204.645 229.503 204.799C229.323 204.952 229.186 205.16 229.093 205.423C229.003 205.687 228.958 205.987 228.958 206.323C228.958 206.659 229.003 206.959 229.093 207.223C229.186 207.486 229.323 207.694 229.503 207.847C229.687 207.998 229.912 208.073 230.181 208.073ZM235.665 205.86V209.203H234.062V203.421H235.59V204.441H235.658C235.786 204.105 236 203.839 236.301 203.643C236.602 203.445 236.968 203.346 237.397 203.346C237.798 203.346 238.148 203.433 238.447 203.609C238.745 203.785 238.978 204.036 239.143 204.362C239.309 204.686 239.392 205.072 239.392 205.521V209.203H237.788V205.807C237.791 205.453 237.7 205.177 237.517 204.979C237.334 204.778 237.082 204.678 236.761 204.678C236.545 204.678 236.354 204.725 236.188 204.817C236.025 204.91 235.897 205.046 235.804 205.224C235.714 205.4 235.668 205.612 235.665 205.86ZM243.26 211.491C242.741 211.491 242.295 211.42 241.924 211.277C241.555 211.136 241.261 210.944 241.043 210.701C240.825 210.457 240.683 210.184 240.618 209.88L242.101 209.681C242.146 209.796 242.218 209.904 242.315 210.004C242.413 210.105 242.542 210.185 242.703 210.245C242.866 210.308 243.064 210.339 243.298 210.339C243.647 210.339 243.934 210.254 244.16 210.083C244.388 209.915 244.502 209.633 244.502 209.236V208.179H244.435C244.364 208.339 244.259 208.491 244.118 208.634C243.978 208.777 243.797 208.894 243.576 208.984C243.356 209.075 243.092 209.12 242.786 209.12C242.352 209.12 241.957 209.019 241.6 208.819C241.246 208.615 240.964 208.305 240.753 207.889C240.545 207.47 240.441 206.94 240.441 206.3C240.441 205.645 240.548 205.098 240.761 204.659C240.974 204.22 241.258 203.891 241.611 203.673C241.968 203.455 242.358 203.346 242.782 203.346C243.106 203.346 243.377 203.401 243.595 203.511C243.813 203.619 243.989 203.755 244.122 203.918C244.258 204.078 244.362 204.236 244.435 204.392H244.495V203.421H246.087V209.259C246.087 209.751 245.967 210.162 245.726 210.494C245.485 210.825 245.151 211.073 244.724 211.239C244.3 211.407 243.812 211.491 243.26 211.491ZM243.294 207.915C243.553 207.915 243.771 207.851 243.949 207.723C244.13 207.593 244.268 207.407 244.363 207.166C244.461 206.923 244.51 206.632 244.51 206.293C244.51 205.954 244.462 205.661 244.367 205.412C244.271 205.161 244.133 204.967 243.953 204.829C243.772 204.691 243.553 204.622 243.294 204.622C243.031 204.622 242.808 204.693 242.628 204.836C242.447 204.977 242.31 205.172 242.218 205.423C242.125 205.674 242.078 205.964 242.078 206.293C242.078 206.627 242.125 206.915 242.218 207.159C242.313 207.4 242.45 207.586 242.628 207.719C242.808 207.85 243.031 207.915 243.294 207.915ZM251.175 209.203H249.429L252.09 201.494H254.19L256.848 209.203H255.101L253.17 203.255H253.11L251.175 209.203ZM251.066 206.172H255.191V207.445H251.066V206.172ZM259.405 201.494V209.203H257.775V201.494H259.405ZM267.381 203.711C267.351 203.407 267.222 203.171 266.994 203.003C266.765 202.835 266.455 202.751 266.064 202.751C265.798 202.751 265.573 202.789 265.39 202.864C265.207 202.937 265.066 203.038 264.968 203.169C264.873 203.299 264.825 203.447 264.825 203.613C264.82 203.751 264.849 203.871 264.912 203.974C264.977 204.077 265.066 204.166 265.179 204.241C265.292 204.314 265.423 204.378 265.571 204.433C265.719 204.486 265.877 204.531 266.045 204.569L266.738 204.735C267.074 204.81 267.383 204.91 267.664 205.036C267.945 205.161 268.188 205.315 268.394 205.499C268.6 205.682 268.759 205.898 268.872 206.146C268.987 206.395 269.046 206.679 269.049 207.001C269.046 207.472 268.926 207.881 268.687 208.228C268.452 208.571 268.11 208.839 267.664 209.029C267.219 209.218 266.684 209.312 266.056 209.312C265.434 209.312 264.892 209.216 264.43 209.026C263.971 208.835 263.612 208.553 263.354 208.179C263.098 207.802 262.964 207.337 262.951 206.782H264.528C264.546 207.041 264.62 207.256 264.75 207.43C264.883 207.6 265.06 207.73 265.281 207.817C265.504 207.903 265.756 207.945 266.037 207.945C266.314 207.945 266.553 207.905 266.756 207.825C266.962 207.745 267.122 207.633 267.234 207.49C267.347 207.347 267.404 207.182 267.404 206.997C267.404 206.824 267.352 206.678 267.25 206.56C267.149 206.442 267.001 206.342 266.805 206.259C266.612 206.176 266.375 206.101 266.094 206.033L265.255 205.822C264.605 205.664 264.091 205.417 263.715 205.081C263.339 204.745 263.152 204.292 263.154 203.722C263.152 203.255 263.276 202.848 263.527 202.499C263.78 202.15 264.128 201.878 264.57 201.682C265.011 201.486 265.513 201.388 266.075 201.388C266.647 201.388 267.147 201.486 267.573 201.682C268.002 201.878 268.336 202.15 268.574 202.499C268.813 202.848 268.936 203.252 268.943 203.711H267.381ZM271.568 207.539L271.572 205.615H271.805L273.657 203.421H275.498L273.009 206.327H272.629L271.568 207.539ZM270.115 209.203V201.494H271.718V209.203H270.115ZM273.728 209.203L272.027 206.684L273.096 205.551L275.607 209.203H273.728ZM276.284 209.203V203.421H277.888V209.203H276.284ZM277.09 202.676C276.851 202.676 276.647 202.597 276.476 202.438C276.308 202.278 276.224 202.086 276.224 201.863C276.224 201.642 276.308 201.452 276.476 201.294C276.647 201.134 276.851 201.053 277.09 201.053C277.328 201.053 277.531 201.134 277.7 201.294C277.87 201.452 277.955 201.642 277.955 201.863C277.955 202.086 277.87 202.278 277.7 202.438C277.531 202.597 277.328 202.676 277.09 202.676ZM280.776 201.494V209.203H279.172V201.494H280.776ZM283.664 201.494V209.203H282.06V201.494H283.664ZM290.322 209.203L291.587 201.494H292.792L291.527 209.203H290.322ZM286.871 207.29L287.07 206.086H293.093L292.893 207.29H286.871ZM287.612 209.203L288.877 201.494H290.081L288.817 209.203H287.612ZM287.311 204.61L287.514 203.406H293.537L293.334 204.61H287.311ZM297.119 209.308C296.557 209.308 296.057 209.211 295.617 209.018C295.181 208.822 294.836 208.554 294.582 208.213C294.331 207.869 294.202 207.472 294.195 207.023H295.836C295.846 207.211 295.907 207.377 296.02 207.52C296.136 207.661 296.289 207.77 296.479 207.847C296.67 207.925 296.885 207.964 297.123 207.964C297.372 207.964 297.591 207.92 297.782 207.832C297.972 207.745 298.122 207.623 298.23 207.467C298.338 207.312 298.392 207.132 298.392 206.929C298.392 206.723 298.334 206.541 298.218 206.383C298.105 206.223 297.942 206.097 297.729 206.007C297.518 205.916 297.267 205.871 296.976 205.871H296.257V204.674H296.976C297.222 204.674 297.439 204.632 297.627 204.546C297.818 204.461 297.966 204.343 298.072 204.193C298.177 204.039 298.23 203.861 298.23 203.658C298.23 203.465 298.183 203.295 298.09 203.15C298 203.002 297.872 202.886 297.707 202.804C297.543 202.721 297.353 202.679 297.134 202.679C296.914 202.679 296.712 202.72 296.528 202.8C296.345 202.878 296.198 202.989 296.088 203.135C295.978 203.28 295.919 203.451 295.911 203.647H294.349C294.356 203.203 294.483 202.811 294.729 202.472C294.975 202.134 295.306 201.869 295.723 201.678C296.142 201.485 296.615 201.388 297.142 201.388C297.674 201.388 298.139 201.485 298.538 201.678C298.937 201.871 299.247 202.132 299.468 202.461C299.691 202.787 299.802 203.154 299.799 203.56C299.802 203.992 299.668 204.352 299.397 204.64C299.128 204.929 298.778 205.112 298.346 205.19V205.25C298.914 205.323 299.345 205.52 299.641 205.841C299.94 206.16 300.088 206.559 300.085 207.038C300.088 207.477 299.961 207.868 299.705 208.209C299.452 208.55 299.102 208.819 298.655 209.014C298.208 209.21 297.696 209.308 297.119 209.308Z" fill="black"/>
<path d="M10.0522 95.87V88.1612H11.682V94.5262H14.9869V95.87H10.0522ZM18.6484 95.9829C18.0637 95.9829 17.5581 95.8587 17.1315 95.6103C16.7074 95.3593 16.3799 95.0105 16.1491 94.5639C15.9182 94.1147 15.8028 93.594 15.8028 93.0018C15.8028 92.4045 15.9182 91.8826 16.1491 91.4359C16.3799 90.9867 16.7074 90.6379 17.1315 90.3895C17.5581 90.1386 18.0637 90.0131 18.6484 90.0131C19.2331 90.0131 19.7375 90.1386 20.1616 90.3895C20.5882 90.6379 20.9169 90.9867 21.1477 91.4359C21.3786 91.8826 21.494 92.4045 21.494 93.0018C21.494 93.594 21.3786 94.1147 21.1477 94.5639C20.9169 95.0105 20.5882 95.3593 20.1616 95.6103C19.7375 95.8587 19.2331 95.9829 18.6484 95.9829ZM18.6559 94.7408C18.9219 94.7408 19.144 94.6655 19.3222 94.5149C19.5003 94.3619 19.6346 94.1536 19.7249 93.8901C19.8178 93.6266 19.8642 93.3267 19.8642 92.9905C19.8642 92.6542 19.8178 92.3544 19.7249 92.0909C19.6346 91.8274 19.5003 91.6191 19.3222 91.466C19.144 91.313 18.9219 91.2364 18.6559 91.2364C18.3874 91.2364 18.1616 91.313 17.9784 91.466C17.7977 91.6191 17.661 91.8274 17.5681 92.0909C17.4778 92.3544 17.4326 92.6542 17.4326 92.9905C17.4326 93.3267 17.4778 93.6266 17.5681 93.8901C17.661 94.1536 17.7977 94.3619 17.9784 94.5149C18.1616 94.6655 18.3874 94.7408 18.6559 94.7408ZM24.1402 92.5275V95.87H22.5367V90.0884H24.0649V91.1084H24.1327C24.2606 90.7722 24.4752 90.5062 24.7763 90.3105C25.0774 90.1122 25.4425 90.0131 25.8717 90.0131C26.2732 90.0131 26.6232 90.1009 26.9218 90.2766C27.2204 90.4522 27.4526 90.7032 27.6182 91.0294C27.7838 91.3531 27.8666 91.7396 27.8666 92.1887V95.87H26.2631V92.4748C26.2656 92.121 26.1753 91.8449 25.9921 91.6467C25.8089 91.446 25.5567 91.3456 25.2355 91.3456C25.0197 91.3456 24.829 91.392 24.6634 91.4849C24.5003 91.5777 24.3723 91.7132 24.2795 91.8914C24.1891 92.067 24.1427 92.2791 24.1402 92.5275ZM31.7351 98.1586C31.2157 98.1586 30.7703 98.087 30.3989 97.944C30.03 97.8035 29.7364 97.6115 29.5181 97.3681C29.2998 97.1247 29.158 96.8512 29.0928 96.5475L30.5758 96.348C30.621 96.4635 30.6925 96.5714 30.7904 96.6717C30.8882 96.7721 31.0175 96.8524 31.1781 96.9126C31.3412 96.9754 31.5394 97.0067 31.7728 97.0067C32.1216 97.0067 32.4089 96.9214 32.6347 96.7508C32.8631 96.5827 32.9773 96.3004 32.9773 95.9039V94.8462H32.9095C32.8393 95.0068 32.7339 95.1586 32.5933 95.3016C32.4528 95.4447 32.2721 95.5613 32.0513 95.6517C31.8305 95.742 31.567 95.7872 31.2609 95.7872C30.8267 95.7872 30.4315 95.6868 30.0752 95.4861C29.7214 95.2828 29.4391 94.9729 29.2283 94.5563C29.02 94.1373 28.9158 93.6078 28.9158 92.9679C28.9158 92.3129 29.0225 91.7659 29.2358 91.3268C29.4491 90.8876 29.7326 90.5589 30.0865 90.3406C30.4428 90.1223 30.833 90.0131 31.2571 90.0131C31.5808 90.0131 31.8518 90.0683 32.0701 90.1787C32.2885 90.2866 32.4641 90.4221 32.5971 90.5852C32.7326 90.7458 32.8368 90.9039 32.9095 91.0595H32.9697V90.0884H34.562V95.9265C34.562 96.4183 34.4415 96.8298 34.2006 97.1611C33.9597 97.4923 33.626 97.7407 33.1994 97.9064C32.7753 98.0745 32.2872 98.1586 31.7351 98.1586ZM31.769 94.5827C32.0275 94.5827 32.2458 94.5187 32.424 94.3907C32.6046 94.2602 32.7427 94.0745 32.838 93.8336C32.9359 93.5902 32.9848 93.2991 32.9848 92.9604C32.9848 92.6216 32.9371 92.328 32.8418 92.0796C32.7464 91.8286 32.6084 91.6342 32.4277 91.4961C32.247 91.3581 32.0275 91.2891 31.769 91.2891C31.5055 91.2891 31.2834 91.3606 31.1028 91.5037C30.9221 91.6442 30.7853 91.8399 30.6925 92.0909C30.5996 92.3418 30.5532 92.6316 30.5532 92.9604C30.5532 93.2941 30.5996 93.5827 30.6925 93.8261C30.7878 94.067 30.9246 94.254 31.1028 94.387C31.2834 94.5174 31.5055 94.5827 31.769 94.5827ZM39.65 95.87H37.9035L40.5647 88.1612H42.6651L45.3225 95.87H43.576L41.645 89.9228H41.5848L39.65 95.87ZM39.5409 92.8399H43.6663V94.1122H39.5409V92.8399ZM47.8802 88.1612V95.87H46.2503V88.1612H47.8802ZM14.8448 107.378C14.8147 107.075 14.6855 106.839 14.4571 106.671C14.2288 106.502 13.9188 106.418 13.5274 106.418C13.2614 106.418 13.0368 106.456 12.8536 106.531C12.6704 106.604 12.5299 106.706 12.432 106.836C12.3367 106.967 12.289 107.115 12.289 107.28C12.284 107.418 12.3128 107.539 12.3756 107.642C12.4408 107.745 12.5299 107.834 12.6428 107.909C12.7557 107.982 12.8862 108.046 13.0343 108.101C13.1823 108.154 13.3404 108.199 13.5086 108.236L14.2012 108.402C14.5374 108.477 14.8461 108.578 15.1271 108.703C15.4082 108.829 15.6516 108.983 15.8573 109.166C16.0631 109.349 16.2225 109.565 16.3354 109.814C16.4508 110.062 16.5098 110.347 16.5123 110.668C16.5098 111.14 16.3893 111.549 16.1509 111.895C15.9151 112.239 15.5738 112.506 15.1271 112.697C14.683 112.885 14.1472 112.979 13.5199 112.979C12.8975 112.979 12.3555 112.884 11.8938 112.693C11.4346 112.502 11.0757 112.22 10.8173 111.846C10.5613 111.47 10.427 111.004 10.4145 110.45H11.9916C12.0092 110.708 12.0832 110.924 12.2137 111.097C12.3467 111.268 12.5236 111.397 12.7445 111.485C12.9678 111.57 13.22 111.613 13.501 111.613C13.7771 111.613 14.0167 111.573 14.22 111.492C14.4257 111.412 14.5851 111.3 14.698 111.157C14.8109 111.014 14.8674 110.85 14.8674 110.664C14.8674 110.491 14.8159 110.346 14.7131 110.228C14.6127 110.11 14.4646 110.009 14.2689 109.926C14.0757 109.844 13.8385 109.768 13.5575 109.701L12.7181 109.49C12.0682 109.332 11.555 109.085 11.1786 108.748C10.8022 108.412 10.6152 107.959 10.6178 107.39C10.6152 106.923 10.7395 106.515 10.9904 106.166C11.2438 105.817 11.5914 105.545 12.033 105.349C12.4747 105.154 12.9766 105.056 13.5387 105.056C14.1108 105.056 14.6102 105.154 15.0368 105.349C15.4659 105.545 15.7996 105.817 16.038 106.166C16.2764 106.515 16.3994 106.919 16.4069 107.378H14.8448ZM19.0314 111.206L19.0352 109.283H19.2685L21.1205 107.088H22.9611L20.473 109.994H20.0929L19.0314 111.206ZM17.5785 112.87V105.161H19.182V112.87H17.5785ZM21.192 112.87L19.4906 110.352L20.5596 109.219L23.0702 112.87H21.192ZM23.7478 112.87V107.088H25.3513V112.87H23.7478ZM24.5533 106.343C24.3149 106.343 24.1104 106.264 23.9397 106.106C23.7716 105.945 23.6876 105.753 23.6876 105.53C23.6876 105.309 23.7716 105.12 23.9397 104.962C24.1104 104.801 24.3149 104.721 24.5533 104.721C24.7917 104.721 24.9949 104.801 25.1631 104.962C25.3337 105.12 25.419 105.309 25.419 105.53C25.419 105.753 25.3337 105.945 25.1631 106.106C24.9949 106.264 24.7917 106.343 24.5533 106.343ZM28.2393 105.161V112.87H26.6358V105.161H28.2393ZM31.1272 105.161V112.87H29.5237V105.161H31.1272ZM37.7859 112.87L39.0506 105.161H40.2551L38.9904 112.87H37.7859ZM34.3342 110.958L34.5337 109.753H40.5562L40.3567 110.958H34.3342ZM35.0757 112.87L36.3405 105.161H37.545L36.2802 112.87H35.0757ZM34.7746 108.278L34.9779 107.073H41.0004L40.7971 108.278H34.7746ZM44.549 112.975C44.017 112.975 43.5427 112.878 43.1262 112.682C42.7121 112.486 42.3834 112.216 42.14 111.873C41.8966 111.529 41.7698 111.135 41.7598 110.691H43.3407C43.3583 110.989 43.4837 111.231 43.7171 111.417C43.9505 111.603 44.2278 111.696 44.549 111.696C44.8049 111.696 45.0308 111.639 45.2265 111.526C45.4247 111.411 45.5791 111.251 45.6895 111.048C45.8024 110.842 45.8589 110.607 45.8589 110.341C45.8589 110.07 45.8012 109.831 45.6857 109.625C45.5728 109.42 45.416 109.259 45.2152 109.144C45.0145 109.028 44.7849 108.969 44.5264 108.967C44.3005 108.967 44.081 109.013 43.8677 109.106C43.6569 109.199 43.4925 109.325 43.3746 109.486L41.9254 109.226L42.2905 105.161H47.0031V106.494H43.6343L43.4348 108.425H43.48C43.6155 108.234 43.82 108.076 44.0935 107.95C44.367 107.825 44.6732 107.762 45.012 107.762C45.4762 107.762 45.8902 107.871 46.2541 108.09C46.618 108.308 46.9053 108.608 47.1161 108.989C47.3269 109.368 47.431 109.805 47.4285 110.299C47.431 110.819 47.3105 111.28 47.0671 111.684C46.8262 112.086 46.4887 112.402 46.0546 112.633C45.623 112.861 45.1211 112.975 44.549 112.975Z" fill="black"/>
<defs>
<radialGradient id="paint0_radial_187_182" cx="0" cy="0" r="1" gradientUnits="userSpaceOnUse" gradientTransform="translate(169.342 114.34) rotate(90) scale(59.2165 53.4859)">
<stop stop-color="#D9D9D9"/>
<stop offset="1" stop-color="#B9B9B9"/>
</radialGradient>
<radialGradient id="paint1_radial_187_182" cx="0" cy="0" r="1" gradientUnits="userSpaceOnUse" gradientTransform="translate(169.342 114.34) rotate(90) scale(59.2166 53.4859)">
<stop stop-color="#D9D9D9"/>
<stop offset="1" stop-color="#005FB5"/>
</radialGradient>
<linearGradient id="paint2_linear_187_182" x1="115.856" y1="130.865" x2="218.765" y2="132.38" gradientUnits="userSpaceOnUse">
<stop stop-color="#0082F8"/>
<stop offset="1" stop-color="#61B0F7"/>
</linearGradient>
</defs>
</svg>
