<svg width="310" height="263" viewBox="0 0 310 263" fill="none" xmlns="http://www.w3.org/2000/svg">
<path d="M155.789 25.1052L64.645 91.6897L98.483 199.207H213.096L247.48 91.6897L155.789 25.1052Z" stroke="#BFBFBF" stroke-width="0.545775"/>
<path d="M155.845 43.6616L82.9292 97.0962L110 183.38H201.69L229.197 97.0962L155.845 43.6616Z" stroke="#BFBFBF" stroke-width="0.545775"/>
<path d="M155.898 61.1266L101.484 101.203L121.686 165.915H190.111L210.639 101.203L155.898 61.1266Z" stroke="#BFBFBF" stroke-width="0.545775"/>
<path d="M155.958 81.8657L121.132 107.748L134.061 149.542H177.854L190.991 107.748L155.958 81.8657Z" stroke="#BFBFBF" stroke-width="0.545775"/>
<path d="M156.014 100.422L139.689 112.945L145.75 133.168H166.278L172.436 112.945L156.014 100.422Z" stroke="#BFBFBF" stroke-width="0.545775"/>
<path d="M213.096 199.207L156.881 120.616M156.881 120.616L247.48 91.6896M156.881 120.616L155.789 25.6509M156.881 120.616L98.483 199.207M156.881 120.616L64.645 91.6896" stroke="#BFBFBF" stroke-width="0.545775"/>
<path d="M230.56 96.0567L157.426 35.4757L89.75 96.0567L106.669 187.747L189.081 173.557L230.56 96.0567Z" fill="url(#paint0_radial_16_626)" fill-opacity="0.3" stroke="#BABABA" stroke-width="1.09155"/>
<path d="M221.828 100.422L157.427 55.1232L114.856 107.518L118.677 173.556L174.346 146.268L221.828 100.422Z" fill="url(#paint1_radial_16_626)" fill-opacity="0.3"/>
<path d="M221.828 100.422L157.427 55.1232L114.856 107.518L118.677 173.556L174.346 146.268L221.828 100.422Z" fill="url(#paint2_linear_16_626)" fill-opacity="0.45"/>
<path d="M221.828 100.422L157.427 55.1232L114.856 107.518L118.677 173.556L174.346 146.268L221.828 100.422Z" stroke="#0047CA" stroke-width="1.09155"/>
<path d="M260.94 94.866H259.194L261.855 87.1571H263.955L266.613 94.866H264.866L262.935 88.9187H262.875L260.94 94.866ZM260.831 91.8359H264.956V93.1081H260.831V91.8359ZM269.17 87.1571V94.866H267.54V87.1571H269.17ZM277.146 89.3742C277.116 89.0706 276.987 88.8347 276.759 88.6665C276.53 88.4984 276.22 88.4143 275.829 88.4143C275.563 88.4143 275.338 88.452 275.155 88.5273C274.972 88.6 274.831 88.7017 274.734 88.8322C274.638 88.9626 274.591 89.1107 274.591 89.2763C274.586 89.4143 274.614 89.5348 274.677 89.6377C274.742 89.7406 274.831 89.8296 274.944 89.9049C275.057 89.9777 275.188 90.0417 275.336 90.0969C275.484 90.1496 275.642 90.1948 275.81 90.2324L276.503 90.398C276.839 90.4733 277.148 90.5737 277.429 90.6991C277.71 90.8246 277.953 90.9789 278.159 91.1621C278.365 91.3453 278.524 91.5611 278.637 91.8095C278.752 92.058 278.811 92.3428 278.814 92.664C278.811 93.1357 278.691 93.5448 278.452 93.8911C278.217 94.2349 277.875 94.5021 277.429 94.6928C276.984 94.881 276.449 94.9751 275.821 94.9751C275.199 94.9751 274.657 94.8798 274.195 94.6891C273.736 94.4983 273.377 94.216 273.119 93.8421C272.863 93.4657 272.729 93.0002 272.716 92.4457H274.293C274.311 92.7041 274.385 92.9199 274.515 93.0931C274.648 93.2637 274.825 93.393 275.046 93.4808C275.269 93.5661 275.522 93.6088 275.803 93.6088C276.079 93.6088 276.318 93.5686 276.521 93.4883C276.727 93.408 276.887 93.2963 277 93.1533C277.112 93.0103 277.169 92.8459 277.169 92.6602C277.169 92.4871 277.117 92.3415 277.015 92.2236C276.914 92.1056 276.766 92.0053 276.57 91.9225C276.377 91.8397 276.14 91.7644 275.859 91.6966L275.02 91.4858C274.37 91.3277 273.857 91.0806 273.48 90.7443C273.104 90.4081 272.917 89.9551 272.919 89.3855C272.917 88.9187 273.041 88.511 273.292 88.1622C273.545 87.8134 273.893 87.5411 274.335 87.3454C274.776 87.1496 275.278 87.0518 275.84 87.0518C276.412 87.0518 276.912 87.1496 277.338 87.3454C277.767 87.5411 278.101 87.8134 278.34 88.1622C278.578 88.511 278.701 88.915 278.708 89.3742H277.146ZM281.333 93.2022L281.337 91.2788H281.57L283.422 89.0844H285.263L282.775 91.9902H282.394L281.333 93.2022ZM279.88 94.866V87.1571H281.483V94.866H279.88ZM283.493 94.866L281.792 92.3478L282.861 91.2148L285.372 94.866H283.493ZM286.049 94.866V89.0844H287.653V94.866H286.049ZM286.855 88.3391C286.616 88.3391 286.412 88.26 286.241 88.1019C286.073 87.9413 285.989 87.7494 285.989 87.526C285.989 87.3052 286.073 87.1157 286.241 86.9577C286.412 86.7971 286.616 86.7168 286.855 86.7168C287.093 86.7168 287.296 86.7971 287.465 86.9577C287.635 87.1157 287.721 87.3052 287.721 87.526C287.721 87.7494 287.635 87.9413 287.465 88.1019C287.296 88.26 287.093 88.3391 286.855 88.3391ZM290.541 87.1571V94.866H288.937V87.1571H290.541ZM293.429 87.1571V94.866H291.825V87.1571H293.429ZM300.087 94.866L301.352 87.1571H302.557L301.292 94.866H300.087ZM296.636 92.9538L296.835 91.7493H302.858L302.658 92.9538H296.636ZM297.377 94.866L298.642 87.1571H299.847L298.582 94.866H297.377ZM297.076 90.2738L297.279 89.0693H303.302L303.099 90.2738H297.076ZM304.035 94.866V93.6916L306.779 91.1508C307.012 90.925 307.208 90.7217 307.366 90.541C307.527 90.3604 307.648 90.1835 307.731 90.0103C307.814 89.8347 307.856 89.6452 307.856 89.4419C307.856 89.2161 307.804 89.0216 307.701 88.8585C307.598 88.6929 307.458 88.5662 307.28 88.4783C307.101 88.388 306.899 88.3428 306.674 88.3428C306.438 88.3428 306.232 88.3905 306.056 88.4859C305.881 88.5812 305.745 88.718 305.65 88.8962C305.554 89.0743 305.507 89.2864 305.507 89.5323H303.96C303.96 89.0279 304.074 88.59 304.302 88.2186C304.531 87.8472 304.851 87.5599 305.262 87.3566C305.674 87.1534 306.148 87.0518 306.685 87.0518C307.237 87.0518 307.717 87.1496 308.127 87.3454C308.538 87.5386 308.858 87.8071 309.086 88.1509C309.315 88.4946 309.429 88.8886 309.429 89.3328C309.429 89.6239 309.371 89.9112 309.256 90.1948C309.143 90.4783 308.941 90.7932 308.65 91.1395C308.359 91.4833 307.948 91.8961 307.419 92.3779L306.293 93.4808V93.5335H309.531V94.866H304.035Z" fill="black"/>
<path d="M138.687 13H136.94L139.601 5.29118H141.702L144.359 13H142.613L140.682 7.05277H140.621L138.687 13ZM138.578 9.96992H142.703V11.2422H138.578V9.96992ZM146.917 5.29118V13H145.287V5.29118H146.917ZM154.893 7.50822C154.863 7.20459 154.734 6.9687 154.505 6.80057C154.277 6.63245 153.967 6.54838 153.575 6.54838C153.309 6.54838 153.085 6.58602 152.902 6.6613C152.719 6.73408 152.578 6.83571 152.48 6.96619C152.385 7.09668 152.337 7.24474 152.337 7.41035C152.332 7.54837 152.361 7.66882 152.424 7.77171C152.489 7.87459 152.578 7.96367 152.691 8.03895C152.804 8.11173 152.934 8.17572 153.082 8.23092C153.23 8.28362 153.389 8.32879 153.557 8.36643L154.249 8.53205C154.586 8.60733 154.894 8.7077 155.175 8.83317C155.456 8.95864 155.7 9.11297 155.905 9.29615C156.111 9.47934 156.271 9.69515 156.383 9.94357C156.499 10.192 156.558 10.4768 156.56 10.798C156.558 11.2698 156.437 11.6788 156.199 12.0251C155.963 12.3689 155.622 12.6361 155.175 12.8269C154.731 13.0151 154.195 13.1092 153.568 13.1092C152.946 13.1092 152.404 13.0138 151.942 12.8231C151.483 12.6324 151.124 12.3501 150.865 11.9762C150.609 11.5998 150.475 11.1343 150.463 10.5797H152.04C152.057 10.8382 152.131 11.054 152.262 11.2271C152.395 11.3978 152.572 11.527 152.793 11.6148C153.016 11.7001 153.268 11.7428 153.549 11.7428C153.825 11.7428 154.065 11.7027 154.268 11.6224C154.474 11.542 154.633 11.4304 154.746 11.2873C154.859 11.1443 154.916 10.9799 154.916 10.7943C154.916 10.6211 154.864 10.4756 154.761 10.3576C154.661 10.2397 154.513 10.1393 154.317 10.0565C154.124 9.97369 153.887 9.89841 153.606 9.83065L152.766 9.61986C152.116 9.46177 151.603 9.2146 151.227 8.87834C150.85 8.54209 150.663 8.08914 150.666 7.51951C150.663 7.05277 150.788 6.64499 151.039 6.29619C151.292 5.94739 151.64 5.67512 152.081 5.47939C152.523 5.28365 153.025 5.18579 153.587 5.18579C154.159 5.18579 154.658 5.28365 155.085 5.47939C155.514 5.67512 155.848 5.94739 156.086 6.29619C156.325 6.64499 156.447 7.049 156.455 7.50822H154.893ZM159.08 11.3363L159.083 9.41284H159.317L161.169 7.21839H163.009L160.521 10.1242H160.141L159.08 11.3363ZM157.627 13V5.29118H159.23V13H157.627ZM161.24 13L159.539 10.4818L160.608 9.34885L163.118 13H161.24ZM163.796 13V7.21839H165.399V13H163.796ZM164.601 6.4731C164.363 6.4731 164.158 6.39406 163.988 6.23596C163.82 6.07536 163.736 5.8834 163.736 5.66006C163.736 5.43924 163.82 5.24978 163.988 5.09169C164.158 4.93109 164.363 4.85079 164.601 4.85079C164.84 4.85079 165.043 4.93109 165.211 5.09169C165.382 5.24978 165.467 5.43924 165.467 5.66006C165.467 5.8834 165.382 6.07536 165.211 6.23596C165.043 6.39406 164.84 6.4731 164.601 6.4731ZM168.287 5.29118V13H166.684V5.29118H168.287ZM171.175 5.29118V13H169.572V5.29118H171.175ZM177.834 13L179.099 5.29118H180.303L179.038 13H177.834ZM174.382 11.0879L174.582 9.88335H180.604L180.405 11.0879H174.382ZM175.124 13L176.389 5.29118H177.593L176.328 13H175.124ZM174.823 8.40783L175.026 7.20333H181.049L180.845 8.40783H174.823ZM185.135 5.29118V13H183.506V6.83822H183.46L181.695 7.94485V6.49945L183.603 5.29118H185.135Z" fill="black"/>
<path d="M74.2853 218.211H72.5388L75.2 210.502H77.3004L79.9578 218.211H78.2113L76.2803 212.264H76.2201L74.2853 218.211ZM74.1762 215.181H78.3016V216.453H74.1762V215.181ZM82.5155 210.502V218.211H80.8856V210.502H82.5155ZM90.4916 212.72C90.4614 212.416 90.3322 212.18 90.1039 212.012C89.8755 211.844 89.5656 211.76 89.1741 211.76C88.9081 211.76 88.6835 211.797 88.5004 211.873C88.3172 211.945 88.1766 212.047 88.0788 212.177C87.9834 212.308 87.9357 212.456 87.9357 212.622C87.9307 212.76 87.9596 212.88 88.0223 212.983C88.0876 213.086 88.1766 213.175 88.2896 213.25C88.4025 213.323 88.533 213.387 88.681 213.442C88.8291 213.495 88.9872 213.54 89.1553 213.578L89.8479 213.743C90.1842 213.819 90.4928 213.919 90.7739 214.044C91.0549 214.17 91.2983 214.324 91.5041 214.507C91.7099 214.691 91.8692 214.906 91.9821 215.155C92.0976 215.403 92.1565 215.688 92.159 216.009C92.1565 216.481 92.0361 216.89 91.7977 217.236C91.5618 217.58 91.2205 217.847 90.7739 218.038C90.3297 218.226 89.7939 218.32 89.1666 218.32C88.5443 218.32 88.0022 218.225 87.5405 218.034C87.0813 217.844 86.7225 217.561 86.464 217.187C86.208 216.811 86.0738 216.346 86.0612 215.791H87.6384C87.656 216.049 87.73 216.265 87.8605 216.438C87.9935 216.609 88.1704 216.738 88.3912 216.826C88.6145 216.911 88.8667 216.954 89.1478 216.954C89.4238 216.954 89.6635 216.914 89.8667 216.834C90.0725 216.753 90.2318 216.642 90.3448 216.499C90.4577 216.356 90.5141 216.191 90.5141 216.006C90.5141 215.832 90.4627 215.687 90.3598 215.569C90.2594 215.451 90.1114 215.351 89.9156 215.268C89.7224 215.185 89.4853 215.11 89.2042 215.042L88.3649 214.831C87.7149 214.673 87.2018 214.426 86.8253 214.09C86.4489 213.753 86.262 213.3 86.2645 212.731C86.262 212.264 86.3862 211.856 86.6371 211.507C86.8906 211.159 87.2381 210.886 87.6798 210.691C88.1214 210.495 88.6233 210.397 89.1854 210.397C89.7576 210.397 90.2569 210.495 90.6835 210.691C91.1126 210.886 91.4464 211.159 91.6848 211.507C91.9232 211.856 92.0461 212.26 92.0536 212.72H90.4916ZM94.6781 216.548L94.6819 214.624H94.9153L96.7672 212.43H98.6078L96.1198 215.336H95.7396L94.6781 216.548ZM93.2252 218.211V210.502H94.8287V218.211H93.2252ZM96.8387 218.211L95.1374 215.693L96.2064 214.56L98.717 218.211H96.8387ZM99.3945 218.211V212.43H100.998V218.211H99.3945ZM100.2 211.684C99.9616 211.684 99.7571 211.605 99.5865 211.447C99.4184 211.287 99.3343 211.095 99.3343 210.871C99.3343 210.651 99.4184 210.461 99.5865 210.303C99.7571 210.142 99.9616 210.062 100.2 210.062C100.438 210.062 100.642 210.142 100.81 210.303C100.98 210.461 101.066 210.651 101.066 210.871C101.066 211.095 100.98 211.287 100.81 211.447C100.642 211.605 100.438 211.684 100.2 211.684ZM103.886 210.502V218.211H102.283V210.502H103.886ZM106.774 210.502V218.211H105.17V210.502H106.774ZM113.433 218.211L114.697 210.502H115.902L114.637 218.211H113.433ZM109.981 216.299L110.18 215.095H116.203L116.003 216.299H109.981ZM110.722 218.211L111.987 210.502H113.192L111.927 218.211H110.722ZM110.421 213.619L110.625 212.415H116.647L116.444 213.619H110.421ZM117.264 216.856V215.573L120.482 210.502H121.588V212.279H120.933L118.905 215.49V215.55H123.478V216.856H117.264ZM120.964 218.211V216.465L120.994 215.896V210.502H122.522V218.211H120.964Z" fill="black"/>
<path d="M220.577 209.203V201.494H222.207V207.859H225.512V209.203H220.577ZM229.173 209.315C228.589 209.315 228.083 209.191 227.657 208.943C227.232 208.692 226.905 208.343 226.674 207.896C226.443 207.447 226.328 206.927 226.328 206.334C226.328 205.737 226.443 205.215 226.674 204.768C226.905 204.319 227.232 203.97 227.657 203.722C228.083 203.471 228.589 203.346 229.173 203.346C229.758 203.346 230.262 203.471 230.687 203.722C231.113 203.97 231.442 204.319 231.673 204.768C231.904 205.215 232.019 205.737 232.019 206.334C232.019 206.927 231.904 207.447 231.673 207.896C231.442 208.343 231.113 208.692 230.687 208.943C230.262 209.191 229.758 209.315 229.173 209.315ZM229.181 208.073C229.447 208.073 229.669 207.998 229.847 207.847C230.025 207.694 230.16 207.486 230.25 207.223C230.343 206.959 230.389 206.659 230.389 206.323C230.389 205.987 230.343 205.687 230.25 205.423C230.16 205.16 230.025 204.952 229.847 204.799C229.669 204.645 229.447 204.569 229.181 204.569C228.912 204.569 228.687 204.645 228.503 204.799C228.323 204.952 228.186 205.16 228.093 205.423C228.003 205.687 227.958 205.987 227.958 206.323C227.958 206.659 228.003 206.959 228.093 207.223C228.186 207.486 228.323 207.694 228.503 207.847C228.687 207.998 228.912 208.073 229.181 208.073ZM234.665 205.86V209.203H233.062V203.421H234.59V204.441H234.658C234.786 204.105 235 203.839 235.301 203.643C235.602 203.445 235.968 203.346 236.397 203.346C236.798 203.346 237.148 203.433 237.447 203.609C237.745 203.785 237.978 204.036 238.143 204.362C238.309 204.686 238.392 205.072 238.392 205.521V209.203H236.788V205.807C236.791 205.453 236.7 205.177 236.517 204.979C236.334 204.778 236.082 204.678 235.761 204.678C235.545 204.678 235.354 204.725 235.188 204.817C235.025 204.91 234.897 205.046 234.804 205.224C234.714 205.4 234.668 205.612 234.665 205.86ZM242.26 211.491C241.741 211.491 241.295 211.42 240.924 211.277C240.555 211.136 240.261 210.944 240.043 210.701C239.825 210.457 239.683 210.184 239.618 209.88L241.101 209.681C241.146 209.796 241.218 209.904 241.315 210.004C241.413 210.105 241.542 210.185 241.703 210.245C241.866 210.308 242.064 210.339 242.298 210.339C242.647 210.339 242.934 210.254 243.16 210.083C243.388 209.915 243.502 209.633 243.502 209.236V208.179H243.435C243.364 208.339 243.259 208.491 243.118 208.634C242.978 208.777 242.797 208.894 242.576 208.984C242.356 209.075 242.092 209.12 241.786 209.12C241.352 209.12 240.957 209.019 240.6 208.819C240.246 208.615 239.964 208.305 239.753 207.889C239.545 207.47 239.441 206.94 239.441 206.3C239.441 205.645 239.548 205.098 239.761 204.659C239.974 204.22 240.258 203.891 240.611 203.673C240.968 203.455 241.358 203.346 241.782 203.346C242.106 203.346 242.377 203.401 242.595 203.511C242.813 203.619 242.989 203.755 243.122 203.918C243.258 204.078 243.362 204.236 243.435 204.392H243.495V203.421H245.087V209.259C245.087 209.751 244.967 210.162 244.726 210.494C244.485 210.825 244.151 211.073 243.724 211.239C243.3 211.407 242.812 211.491 242.26 211.491ZM242.294 207.915C242.553 207.915 242.771 207.851 242.949 207.723C243.13 207.593 243.268 207.407 243.363 207.166C243.461 206.923 243.51 206.632 243.51 206.293C243.51 205.954 243.462 205.661 243.367 205.412C243.271 205.161 243.133 204.967 242.953 204.829C242.772 204.691 242.553 204.622 242.294 204.622C242.031 204.622 241.808 204.693 241.628 204.836C241.447 204.977 241.31 205.172 241.218 205.423C241.125 205.674 241.078 205.964 241.078 206.293C241.078 206.627 241.125 206.915 241.218 207.159C241.313 207.4 241.45 207.586 241.628 207.719C241.808 207.85 242.031 207.915 242.294 207.915ZM250.175 209.203H248.429L251.09 201.494H253.19L255.848 209.203H254.101L252.17 203.255H252.11L250.175 209.203ZM250.066 206.172H254.191V207.445H250.066V206.172ZM258.405 201.494V209.203H256.775V201.494H258.405ZM266.381 203.711C266.351 203.407 266.222 203.171 265.994 203.003C265.765 202.835 265.455 202.751 265.064 202.751C264.798 202.751 264.573 202.789 264.39 202.864C264.207 202.937 264.066 203.038 263.968 203.169C263.873 203.299 263.825 203.447 263.825 203.613C263.82 203.751 263.849 203.871 263.912 203.974C263.977 204.077 264.066 204.166 264.179 204.241C264.292 204.314 264.423 204.378 264.571 204.433C264.719 204.486 264.877 204.531 265.045 204.569L265.738 204.735C266.074 204.81 266.383 204.91 266.664 205.036C266.945 205.161 267.188 205.315 267.394 205.499C267.6 205.682 267.759 205.898 267.872 206.146C267.987 206.395 268.046 206.679 268.049 207.001C268.046 207.472 267.926 207.881 267.687 208.228C267.452 208.571 267.11 208.839 266.664 209.029C266.219 209.218 265.684 209.312 265.056 209.312C264.434 209.312 263.892 209.216 263.43 209.026C262.971 208.835 262.612 208.553 262.354 208.179C262.098 207.802 261.964 207.337 261.951 206.782H263.528C263.546 207.041 263.62 207.256 263.75 207.43C263.883 207.6 264.06 207.73 264.281 207.817C264.504 207.903 264.756 207.945 265.037 207.945C265.314 207.945 265.553 207.905 265.756 207.825C265.962 207.745 266.122 207.633 266.234 207.49C266.347 207.347 266.404 207.182 266.404 206.997C266.404 206.824 266.352 206.678 266.25 206.56C266.149 206.442 266.001 206.342 265.805 206.259C265.612 206.176 265.375 206.101 265.094 206.033L264.255 205.822C263.605 205.664 263.091 205.417 262.715 205.081C262.339 204.745 262.152 204.292 262.154 203.722C262.152 203.255 262.276 202.848 262.527 202.499C262.78 202.15 263.128 201.878 263.57 201.682C264.011 201.486 264.513 201.388 265.075 201.388C265.647 201.388 266.147 201.486 266.573 201.682C267.002 201.878 267.336 202.15 267.574 202.499C267.813 202.848 267.936 203.252 267.943 203.711H266.381ZM270.568 207.539L270.572 205.615H270.805L272.657 203.421H274.498L272.009 206.327H271.629L270.568 207.539ZM269.115 209.203V201.494H270.718V209.203H269.115ZM272.728 209.203L271.027 206.684L272.096 205.551L274.607 209.203H272.728ZM275.284 209.203V203.421H276.888V209.203H275.284ZM276.09 202.676C275.851 202.676 275.647 202.597 275.476 202.438C275.308 202.278 275.224 202.086 275.224 201.863C275.224 201.642 275.308 201.452 275.476 201.294C275.647 201.134 275.851 201.053 276.09 201.053C276.328 201.053 276.531 201.134 276.7 201.294C276.87 201.452 276.955 201.642 276.955 201.863C276.955 202.086 276.87 202.278 276.7 202.438C276.531 202.597 276.328 202.676 276.09 202.676ZM279.776 201.494V209.203H278.172V201.494H279.776ZM282.664 201.494V209.203H281.06V201.494H282.664ZM289.322 209.203L290.587 201.494H291.792L290.527 209.203H289.322ZM285.871 207.29L286.07 206.086H292.093L291.893 207.29H285.871ZM286.612 209.203L287.877 201.494H289.081L287.817 209.203H286.612ZM286.311 204.61L286.514 203.406H292.537L292.334 204.61H286.311ZM296.119 209.308C295.557 209.308 295.057 209.211 294.617 209.018C294.181 208.822 293.836 208.554 293.582 208.213C293.331 207.869 293.202 207.472 293.195 207.023H294.836C294.846 207.211 294.907 207.377 295.02 207.52C295.136 207.661 295.289 207.77 295.479 207.847C295.67 207.925 295.885 207.964 296.123 207.964C296.372 207.964 296.591 207.92 296.782 207.832C296.972 207.745 297.122 207.623 297.23 207.467C297.338 207.312 297.392 207.132 297.392 206.929C297.392 206.723 297.334 206.541 297.218 206.383C297.105 206.223 296.942 206.097 296.729 206.007C296.518 205.916 296.267 205.871 295.976 205.871H295.257V204.674H295.976C296.222 204.674 296.439 204.632 296.627 204.546C296.818 204.461 296.966 204.343 297.072 204.193C297.177 204.039 297.23 203.861 297.23 203.658C297.23 203.465 297.183 203.295 297.09 203.15C297 203.002 296.872 202.886 296.707 202.804C296.543 202.721 296.353 202.679 296.134 202.679C295.914 202.679 295.712 202.72 295.528 202.8C295.345 202.878 295.198 202.989 295.088 203.135C294.978 203.28 294.919 203.451 294.911 203.647H293.349C293.356 203.203 293.483 202.811 293.729 202.472C293.975 202.134 294.306 201.869 294.723 201.678C295.142 201.485 295.615 201.388 296.142 201.388C296.674 201.388 297.139 201.485 297.538 201.678C297.937 201.871 298.247 202.132 298.468 202.461C298.691 202.787 298.802 203.154 298.799 203.56C298.802 203.992 298.668 204.352 298.397 204.64C298.128 204.929 297.778 205.112 297.346 205.19V205.25C297.914 205.323 298.345 205.52 298.641 205.841C298.94 206.16 299.088 206.559 299.085 207.038C299.088 207.477 298.961 207.868 298.705 208.209C298.452 208.55 298.102 208.819 297.655 209.014C297.208 209.21 296.696 209.308 296.119 209.308Z" fill="black"/>
<path d="M9.0522 95.87V88.1612H10.682V94.5262H13.9869V95.87H9.0522ZM17.6484 95.9829C17.0637 95.9829 16.5581 95.8587 16.1315 95.6103C15.7074 95.3593 15.3799 95.0105 15.1491 94.5639C14.9182 94.1147 14.8028 93.594 14.8028 93.0018C14.8028 92.4045 14.9182 91.8826 15.1491 91.4359C15.3799 90.9867 15.7074 90.6379 16.1315 90.3895C16.5581 90.1386 17.0637 90.0131 17.6484 90.0131C18.2331 90.0131 18.7375 90.1386 19.1616 90.3895C19.5882 90.6379 19.9169 90.9867 20.1477 91.4359C20.3786 91.8826 20.494 92.4045 20.494 93.0018C20.494 93.594 20.3786 94.1147 20.1477 94.5639C19.9169 95.0105 19.5882 95.3593 19.1616 95.6103C18.7375 95.8587 18.2331 95.9829 17.6484 95.9829ZM17.6559 94.7408C17.9219 94.7408 18.144 94.6655 18.3222 94.5149C18.5003 94.3619 18.6346 94.1536 18.7249 93.8901C18.8178 93.6266 18.8642 93.3267 18.8642 92.9905C18.8642 92.6542 18.8178 92.3544 18.7249 92.0909C18.6346 91.8274 18.5003 91.6191 18.3222 91.466C18.144 91.313 17.9219 91.2364 17.6559 91.2364C17.3874 91.2364 17.1616 91.313 16.9784 91.466C16.7977 91.6191 16.661 91.8274 16.5681 92.0909C16.4778 92.3544 16.4326 92.6542 16.4326 92.9905C16.4326 93.3267 16.4778 93.6266 16.5681 93.8901C16.661 94.1536 16.7977 94.3619 16.9784 94.5149C17.1616 94.6655 17.3874 94.7408 17.6559 94.7408ZM23.1402 92.5275V95.87H21.5367V90.0884H23.0649V91.1084H23.1327C23.2606 90.7722 23.4752 90.5062 23.7763 90.3105C24.0774 90.1122 24.4425 90.0131 24.8717 90.0131C25.2732 90.0131 25.6232 90.1009 25.9218 90.2766C26.2204 90.4522 26.4526 90.7032 26.6182 91.0294C26.7838 91.3531 26.8666 91.7396 26.8666 92.1887V95.87H25.2631V92.4748C25.2656 92.121 25.1753 91.8449 24.9921 91.6467C24.8089 91.446 24.5567 91.3456 24.2355 91.3456C24.0197 91.3456 23.829 91.392 23.6634 91.4849C23.5003 91.5777 23.3723 91.7132 23.2795 91.8914C23.1891 92.067 23.1427 92.2791 23.1402 92.5275ZM30.7351 98.1586C30.2157 98.1586 29.7703 98.087 29.3989 97.944C29.03 97.8035 28.7364 97.6115 28.5181 97.3681C28.2998 97.1247 28.158 96.8512 28.0928 96.5475L29.5758 96.348C29.621 96.4635 29.6925 96.5714 29.7904 96.6717C29.8882 96.7721 30.0175 96.8524 30.1781 96.9126C30.3412 96.9754 30.5394 97.0067 30.7728 97.0067C31.1216 97.0067 31.4089 96.9214 31.6347 96.7508C31.8631 96.5827 31.9773 96.3004 31.9773 95.9039V94.8462H31.9095C31.8393 95.0068 31.7339 95.1586 31.5933 95.3016C31.4528 95.4447 31.2721 95.5613 31.0513 95.6517C30.8305 95.742 30.567 95.7872 30.2609 95.7872C29.8267 95.7872 29.4315 95.6868 29.0752 95.4861C28.7214 95.2828 28.4391 94.9729 28.2283 94.5563C28.02 94.1373 27.9158 93.6078 27.9158 92.9679C27.9158 92.3129 28.0225 91.7659 28.2358 91.3268C28.4491 90.8876 28.7326 90.5589 29.0865 90.3406C29.4428 90.1223 29.833 90.0131 30.2571 90.0131C30.5808 90.0131 30.8518 90.0683 31.0701 90.1787C31.2885 90.2866 31.4641 90.4221 31.5971 90.5852C31.7326 90.7458 31.8368 90.9039 31.9095 91.0595H31.9697V90.0884H33.562V95.9265C33.562 96.4183 33.4415 96.8298 33.2006 97.1611C32.9597 97.4923 32.626 97.7407 32.1994 97.9064C31.7753 98.0745 31.2872 98.1586 30.7351 98.1586ZM30.769 94.5827C31.0275 94.5827 31.2458 94.5187 31.424 94.3907C31.6046 94.2602 31.7427 94.0745 31.838 93.8336C31.9359 93.5902 31.9848 93.2991 31.9848 92.9604C31.9848 92.6216 31.9371 92.328 31.8418 92.0796C31.7464 91.8286 31.6084 91.6342 31.4277 91.4961C31.247 91.3581 31.0275 91.2891 30.769 91.2891C30.5055 91.2891 30.2834 91.3606 30.1028 91.5037C29.9221 91.6442 29.7853 91.8399 29.6925 92.0909C29.5996 92.3418 29.5532 92.6316 29.5532 92.9604C29.5532 93.2941 29.5996 93.5827 29.6925 93.8261C29.7878 94.067 29.9246 94.254 30.1028 94.387C30.2834 94.5174 30.5055 94.5827 30.769 94.5827ZM38.65 95.87H36.9035L39.5647 88.1612H41.6651L44.3225 95.87H42.576L40.645 89.9228H40.5848L38.65 95.87ZM38.5409 92.8399H42.6663V94.1122H38.5409V92.8399ZM46.8802 88.1612V95.87H45.2503V88.1612H46.8802ZM13.8448 107.378C13.8147 107.075 13.6855 106.839 13.4571 106.671C13.2288 106.502 12.9188 106.418 12.5274 106.418C12.2614 106.418 12.0368 106.456 11.8536 106.531C11.6704 106.604 11.5299 106.706 11.432 106.836C11.3367 106.967 11.289 107.115 11.289 107.28C11.284 107.418 11.3128 107.539 11.3756 107.642C11.4408 107.745 11.5299 107.834 11.6428 107.909C11.7557 107.982 11.8862 108.046 12.0343 108.101C12.1823 108.154 12.3404 108.199 12.5086 108.236L13.2012 108.402C13.5374 108.477 13.8461 108.578 14.1271 108.703C14.4082 108.829 14.6516 108.983 14.8573 109.166C15.0631 109.349 15.2225 109.565 15.3354 109.814C15.4508 110.062 15.5098 110.347 15.5123 110.668C15.5098 111.14 15.3893 111.549 15.1509 111.895C14.9151 112.239 14.5738 112.506 14.1271 112.697C13.683 112.885 13.1472 112.979 12.5199 112.979C11.8975 112.979 11.3555 112.884 10.8938 112.693C10.4346 112.502 10.0757 112.22 9.81725 111.846C9.56129 111.47 9.42704 111.004 9.4145 110.45H10.9916C11.0092 110.708 11.0832 110.924 11.2137 111.097C11.3467 111.268 11.5236 111.397 11.7445 111.485C11.9678 111.57 12.22 111.613 12.501 111.613C12.7771 111.613 13.0167 111.573 13.22 111.492C13.4257 111.412 13.5851 111.3 13.698 111.157C13.8109 111.014 13.8674 110.85 13.8674 110.664C13.8674 110.491 13.8159 110.346 13.7131 110.228C13.6127 110.11 13.4646 110.009 13.2689 109.926C13.0757 109.844 12.8385 109.768 12.5575 109.701L11.7181 109.49C11.0682 109.332 10.555 109.085 10.1786 108.748C9.8022 108.412 9.61525 107.959 9.61776 107.39C9.61525 106.923 9.73946 106.515 9.9904 106.166C10.2438 105.817 10.5914 105.545 11.033 105.349C11.4747 105.154 11.9766 105.056 12.5387 105.056C13.1108 105.056 13.6102 105.154 14.0368 105.349C14.4659 105.545 14.7996 105.817 15.038 106.166C15.2764 106.515 15.3994 106.919 15.4069 107.378H13.8448ZM18.0314 111.206L18.0352 109.283H18.2685L20.1205 107.088H21.9611L19.473 109.994H19.0929L18.0314 111.206ZM16.5785 112.87V105.161H18.182V112.87H16.5785ZM20.192 112.87L18.4906 110.352L19.5596 109.219L22.0702 112.87H20.192ZM22.7478 112.87V107.088H24.3513V112.87H22.7478ZM23.5533 106.343C23.3149 106.343 23.1104 106.264 22.9397 106.106C22.7716 105.945 22.6876 105.753 22.6876 105.53C22.6876 105.309 22.7716 105.12 22.9397 104.962C23.1104 104.801 23.3149 104.721 23.5533 104.721C23.7917 104.721 23.9949 104.801 24.1631 104.962C24.3337 105.12 24.419 105.309 24.419 105.53C24.419 105.753 24.3337 105.945 24.1631 106.106C23.9949 106.264 23.7917 106.343 23.5533 106.343ZM27.2393 105.161V112.87H25.6358V105.161H27.2393ZM30.1272 105.161V112.87H28.5237V105.161H30.1272ZM36.7859 112.87L38.0506 105.161H39.2551L37.9904 112.87H36.7859ZM33.3342 110.958L33.5337 109.753H39.5562L39.3567 110.958H33.3342ZM34.0757 112.87L35.3405 105.161H36.545L35.2802 112.87H34.0757ZM33.7746 108.278L33.9779 107.073H40.0004L39.7971 108.278H33.7746ZM43.549 112.975C43.017 112.975 42.5427 112.878 42.1262 112.682C41.7121 112.486 41.3834 112.216 41.14 111.873C40.8966 111.529 40.7698 111.135 40.7598 110.691H42.3407C42.3583 110.989 42.4837 111.231 42.7171 111.417C42.9505 111.603 43.2278 111.696 43.549 111.696C43.8049 111.696 44.0308 111.639 44.2265 111.526C44.4247 111.411 44.5791 111.251 44.6895 111.048C44.8024 110.842 44.8589 110.607 44.8589 110.341C44.8589 110.07 44.8012 109.831 44.6857 109.625C44.5728 109.42 44.416 109.259 44.2152 109.144C44.0145 109.028 43.7849 108.969 43.5264 108.967C43.3005 108.967 43.081 109.013 42.8677 109.106C42.6569 109.199 42.4925 109.325 42.3746 109.486L40.9254 109.226L41.2905 105.161H46.0031V106.494H42.6343L42.4348 108.425H42.48C42.6155 108.234 42.82 108.076 43.0935 107.95C43.367 107.825 43.6732 107.762 44.012 107.762C44.4762 107.762 44.8902 107.871 45.2541 108.09C45.618 108.308 45.9053 108.608 46.1161 108.989C46.3269 109.368 46.431 109.805 46.4285 110.299C46.431 110.819 46.3105 111.28 46.0671 111.684C45.8262 112.086 45.4887 112.402 45.0546 112.633C44.623 112.861 44.1211 112.975 43.549 112.975Z" fill="black"/>
<circle cx="24.8887" cy="253.14" r="6.10408" fill="#0047CA"/>
<path d="M39.1801 254.113V257.14H38.1519V254.113L35.3695 249.545H36.2705C36.3623 249.545 36.4347 249.568 36.4877 249.614C36.5407 249.656 36.5867 249.713 36.6255 249.784L38.3639 252.736C38.4275 252.859 38.4858 252.976 38.5388 253.085C38.5918 253.191 38.6377 253.299 38.6766 253.409C38.7154 253.299 38.7596 253.191 38.8091 253.085C38.8585 252.976 38.9133 252.859 38.9734 252.736L40.7064 249.784C40.7382 249.723 40.7824 249.669 40.8389 249.619C40.8954 249.57 40.9679 249.545 41.0562 249.545H41.9625L39.1801 254.113ZM43.8243 251.686C44.2164 251.686 44.5698 251.752 44.8842 251.882C45.1987 252.013 45.4672 252.198 45.6898 252.439C45.9124 252.679 46.082 252.97 46.1986 253.313C46.3187 253.652 46.3788 254.032 46.3788 254.453C46.3788 254.877 46.3187 255.258 46.1986 255.597C46.082 255.937 45.9124 256.226 45.6898 256.467C45.4672 256.707 45.1987 256.892 44.8842 257.023C44.5698 257.15 44.2164 257.214 43.8243 257.214C43.4285 257.214 43.0717 257.15 42.7537 257.023C42.4392 256.892 42.1707 256.707 41.9481 256.467C41.7255 256.226 41.5542 255.937 41.434 255.597C41.3174 255.258 41.2592 254.877 41.2592 254.453C41.2592 254.032 41.3174 253.652 41.434 253.313C41.5542 252.97 41.7255 252.679 41.9481 252.439C42.1707 252.198 42.4392 252.013 42.7537 251.882C43.0717 251.752 43.4285 251.686 43.8243 251.686ZM43.8243 256.477C44.3542 256.477 44.75 256.301 45.0114 255.947C45.2729 255.59 45.4036 255.094 45.4036 254.458C45.4036 253.818 45.2729 253.32 45.0114 252.963C44.75 252.607 44.3542 252.428 43.8243 252.428C43.5557 252.428 43.3208 252.474 43.1194 252.566C42.9215 252.658 42.7555 252.79 42.6212 252.963C42.4905 253.137 42.3915 253.35 42.3244 253.605C42.2608 253.856 42.229 254.14 42.229 254.458C42.229 255.094 42.3597 255.59 42.6212 255.947C42.8862 256.301 43.2872 256.477 43.8243 256.477ZM51.99 251.771V257.14H51.4282C51.294 257.14 51.2092 257.074 51.1739 256.944L51.0997 256.366C50.8665 256.624 50.605 256.832 50.3153 256.991C50.0256 257.147 49.6934 257.224 49.3189 257.224C49.0257 257.224 48.766 257.177 48.5398 257.081C48.3173 256.982 48.13 256.845 47.9781 256.668C47.8261 256.491 47.7113 256.278 47.6336 256.027C47.5594 255.776 47.5223 255.498 47.5223 255.195V251.771H48.4657V255.195C48.4657 255.601 48.5575 255.915 48.7412 256.138C48.9285 256.361 49.2129 256.472 49.5945 256.472C49.8736 256.472 50.1333 256.407 50.3736 256.276C50.6174 256.142 50.8417 255.958 51.0467 255.725V251.771H51.99ZM54.3815 252.847C54.5511 252.479 54.7595 252.193 55.0069 251.988C55.2542 251.78 55.5563 251.676 55.9131 251.676C56.0262 251.676 56.134 251.688 56.2364 251.713C56.3424 251.737 56.436 251.776 56.5173 251.829L56.4484 252.534C56.4272 252.622 56.3742 252.667 56.2894 252.667C56.24 252.667 56.1675 252.656 56.0721 252.635C55.9767 252.614 55.869 252.603 55.7488 252.603C55.5792 252.603 55.4273 252.628 55.2931 252.677C55.1623 252.727 55.044 252.801 54.938 252.9C54.8355 252.995 54.7419 253.115 54.6571 253.26C54.5758 253.402 54.5016 253.564 54.4345 253.748V257.14H53.4858V251.771H54.0264C54.1289 251.771 54.1995 251.79 54.2384 251.829C54.2773 251.868 54.3038 251.935 54.3179 252.031L54.3815 252.847ZM62.958 252.656C62.9156 252.734 62.8502 252.773 62.7619 252.773C62.7089 252.773 62.6488 252.753 62.5817 252.714C62.5146 252.675 62.4315 252.633 62.3326 252.587C62.2372 252.538 62.1224 252.493 61.9881 252.455C61.8539 252.412 61.6949 252.391 61.5111 252.391C61.3521 252.391 61.2091 252.412 61.0819 252.455C60.9547 252.493 60.8451 252.548 60.7533 252.619C60.6649 252.69 60.596 252.773 60.5466 252.868C60.5006 252.96 60.4777 253.061 60.4777 253.17C60.4777 253.308 60.5165 253.423 60.5943 253.515C60.6755 253.606 60.7815 253.686 60.9123 253.753C61.043 253.82 61.1914 253.88 61.3574 253.933C61.5235 253.983 61.6931 254.037 61.8662 254.098C62.0429 254.154 62.2142 254.218 62.3803 254.288C62.5464 254.359 62.6948 254.447 62.8255 254.553C62.9562 254.659 63.0605 254.79 63.1382 254.946C63.2194 255.097 63.2601 255.281 63.2601 255.497C63.2601 255.744 63.2159 255.974 63.1276 256.186C63.0393 256.394 62.9085 256.576 62.7354 256.732C62.5623 256.883 62.3503 257.004 62.0994 257.092C61.8486 257.18 61.5588 257.224 61.2303 257.224C60.8557 257.224 60.5165 257.164 60.2127 257.044C59.9088 256.921 59.6509 256.763 59.4389 256.573L59.6615 256.212C59.6898 256.166 59.7233 256.131 59.7622 256.106C59.8011 256.081 59.8505 256.069 59.9106 256.069C59.9742 256.069 60.0413 256.094 60.112 256.143C60.1827 256.193 60.2675 256.248 60.3664 256.308C60.4688 256.368 60.5925 256.422 60.7374 256.472C60.8822 256.521 61.0624 256.546 61.2779 256.546C61.4617 256.546 61.6224 256.523 61.7602 256.477C61.898 256.428 62.0129 256.362 62.1047 256.281C62.1966 256.2 62.2637 256.106 62.3061 256C62.352 255.894 62.375 255.781 62.375 255.661C62.375 255.513 62.3344 255.391 62.2531 255.295C62.1754 255.196 62.0712 255.113 61.9404 255.046C61.8097 254.976 61.6595 254.915 61.4899 254.866C61.3239 254.813 61.1525 254.758 60.9759 254.702C60.8027 254.645 60.6314 254.582 60.4618 254.511C60.2957 254.437 60.1473 254.345 60.0166 254.235C59.8859 254.126 59.7799 253.992 59.6986 253.833C59.6209 253.67 59.582 253.474 59.582 253.244C59.582 253.039 59.6244 252.843 59.7092 252.656C59.794 252.465 59.9177 252.299 60.0802 252.158C60.2427 252.013 60.4423 251.898 60.6791 251.813C60.9158 251.729 61.1861 251.686 61.4899 251.686C61.8433 251.686 62.1595 251.743 62.4386 251.856C62.7213 251.965 62.9651 252.117 63.17 252.312L62.958 252.656ZM65.3653 249.333V253.928H65.6091C65.6798 253.928 65.7381 253.919 65.784 253.901C65.8335 253.88 65.8847 253.84 65.9377 253.78L67.6337 251.962C67.6831 251.902 67.7344 251.856 67.7874 251.824C67.8439 251.789 67.9181 251.771 68.01 251.771H68.8632L66.8864 253.875C66.791 253.995 66.6885 254.089 66.579 254.156C66.6426 254.198 66.6991 254.248 66.7486 254.304C66.8016 254.357 66.8511 254.419 66.897 254.49L68.9957 257.14H68.153C68.0718 257.14 68.0011 257.127 67.9411 257.103C67.8845 257.074 67.8351 257.025 67.7927 256.954L66.0278 254.755C65.9748 254.681 65.9218 254.633 65.8688 254.612C65.8194 254.587 65.7416 254.575 65.6356 254.575H65.3653V257.14H64.4167V249.333H65.3653ZM70.7957 251.771V257.14H69.8523V251.771H70.7957ZM70.9971 250.086C70.9971 250.177 70.9776 250.264 70.9388 250.345C70.9034 250.423 70.854 250.494 70.7904 250.557C70.7303 250.617 70.6579 250.665 70.5731 250.7C70.4918 250.736 70.4052 250.753 70.3134 250.753C70.2215 250.753 70.135 250.736 70.0537 250.7C69.976 250.665 69.9071 250.617 69.847 250.557C69.7869 250.494 69.7392 250.423 69.7039 250.345C69.6686 250.264 69.6509 250.177 69.6509 250.086C69.6509 249.994 69.6686 249.907 69.7039 249.826C69.7392 249.741 69.7869 249.669 69.847 249.609C69.9071 249.545 69.976 249.496 70.0537 249.46C70.135 249.425 70.2215 249.407 70.3134 249.407C70.4052 249.407 70.4918 249.425 70.5731 249.46C70.6579 249.496 70.7303 249.545 70.7904 249.609C70.854 249.669 70.9034 249.741 70.9388 249.826C70.9776 249.907 70.9971 249.994 70.9971 250.086ZM73.3209 249.333V257.14H72.3775V249.333H73.3209ZM75.8258 249.333V257.14H74.8825V249.333H75.8258ZM81.9385 254.516C82.1293 254.516 82.2971 254.49 82.442 254.437C82.5869 254.384 82.7088 254.31 82.8077 254.214C82.9066 254.119 82.9808 254.006 83.0303 253.875C83.0797 253.741 83.1045 253.594 83.1045 253.435C83.1045 253.106 83.0038 252.845 82.8024 252.651C82.6045 252.456 82.3166 252.359 81.9385 252.359C81.5569 252.359 81.2654 252.456 81.064 252.651C80.8662 252.845 80.7673 253.106 80.7673 253.435C80.7673 253.594 80.792 253.741 80.8415 253.875C80.8945 254.006 80.9704 254.119 81.0693 254.214C81.1683 254.31 81.2902 254.384 81.435 254.437C81.5799 254.49 81.7477 254.516 81.9385 254.516ZM83.6398 257.431C83.6398 257.3 83.6027 257.194 83.5285 257.113C83.4543 257.032 83.3536 256.968 83.2264 256.922C83.1027 256.876 82.9578 256.845 82.7918 256.827C82.6257 256.806 82.4491 256.79 82.2618 256.779C82.0781 256.769 81.8908 256.758 81.7 256.747C81.5092 256.737 81.3255 256.719 81.1488 256.694C80.951 256.786 80.7885 256.903 80.6613 257.044C80.5376 257.182 80.4758 257.345 80.4758 257.532C80.4758 257.652 80.5058 257.763 80.5659 257.866C80.6295 257.972 80.7249 258.062 80.8521 258.136C80.9793 258.214 81.1382 258.274 81.329 258.316C81.5234 258.362 81.7513 258.385 82.0127 258.385C82.2671 258.385 82.495 258.362 82.6964 258.316C82.8978 258.27 83.0674 258.205 83.2052 258.12C83.3465 258.035 83.4543 257.935 83.5285 257.818C83.6027 257.701 83.6398 257.572 83.6398 257.431ZM84.599 251.983V252.333C84.599 252.449 84.5248 252.524 84.3764 252.555L83.767 252.635C83.8871 252.868 83.9471 253.126 83.9471 253.409C83.9471 253.67 83.8959 253.909 83.7935 254.124C83.6945 254.336 83.5567 254.518 83.3801 254.67C83.2034 254.822 82.9914 254.938 82.7441 255.02C82.4968 255.101 82.2282 255.142 81.9385 255.142C81.6877 255.142 81.4509 255.112 81.2283 255.052C81.1153 255.122 81.0287 255.198 80.9687 255.279C80.9086 255.357 80.8786 255.437 80.8786 255.518C80.8786 255.645 80.9298 255.742 81.0323 255.809C81.1382 255.873 81.276 255.919 81.4456 255.947C81.6152 255.975 81.8078 255.993 82.0233 256C82.2424 256.007 82.465 256.02 82.6911 256.037C82.9208 256.051 83.1433 256.078 83.3589 256.117C83.5779 256.156 83.7723 256.219 83.9418 256.308C84.1114 256.396 84.2475 256.518 84.3499 256.673C84.4559 256.829 84.5089 257.03 84.5089 257.277C84.5089 257.507 84.4506 257.73 84.334 257.945C84.221 258.161 84.0567 258.352 83.8412 258.518C83.6256 258.687 83.3606 258.821 83.0462 258.92C82.7353 259.023 82.3837 259.074 81.9915 259.074C81.5993 259.074 81.2566 259.035 80.9634 258.957C80.6701 258.88 80.4263 258.776 80.232 258.645C80.0377 258.514 79.891 258.362 79.7921 258.189C79.6967 258.019 79.649 257.841 79.649 257.654C79.649 257.389 79.732 257.164 79.8981 256.981C80.0642 256.797 80.292 256.65 80.5818 256.541C80.4228 256.47 80.2956 256.376 80.2002 256.26C80.1083 256.14 80.0624 255.979 80.0624 255.778C80.0624 255.7 80.0765 255.62 80.1048 255.539C80.133 255.454 80.1754 255.371 80.232 255.29C80.292 255.205 80.3645 255.126 80.4493 255.052C80.5341 254.977 80.633 254.912 80.7461 254.855C80.4811 254.707 80.2744 254.511 80.126 254.267C79.9776 254.02 79.9034 253.734 79.9034 253.409C79.9034 253.147 79.9529 252.91 80.0518 252.698C80.1542 252.483 80.2956 252.301 80.4758 252.153C80.656 252.001 80.8697 251.884 81.117 251.803C81.3679 251.721 81.6417 251.681 81.9385 251.681C82.1717 251.681 82.389 251.707 82.5904 251.76C82.7918 251.81 82.9755 251.884 83.1416 251.983H84.599ZM86.4702 252.847C86.6398 252.479 86.8482 252.193 87.0956 251.988C87.3429 251.78 87.645 251.676 88.0018 251.676C88.1149 251.676 88.2227 251.688 88.3251 251.713C88.4311 251.737 88.5247 251.776 88.606 251.829L88.5371 252.534C88.5159 252.622 88.4629 252.667 88.3781 252.667C88.3287 252.667 88.2562 252.656 88.1608 252.635C88.0654 252.614 87.9577 252.603 87.8375 252.603C87.6679 252.603 87.516 252.628 87.3818 252.677C87.251 252.727 87.1327 252.801 87.0267 252.9C86.9242 252.995 86.8306 253.115 86.7458 253.26C86.6645 253.402 86.5903 253.564 86.5232 253.748V257.14H85.5745V251.771H86.1151C86.2176 251.771 86.2882 251.79 86.3271 251.829C86.366 251.868 86.3925 251.935 86.4066 252.031L86.4702 252.847ZM92.2623 254.723C91.8277 254.737 91.4567 254.772 91.1493 254.829C90.8455 254.882 90.5964 254.953 90.4021 255.041C90.2113 255.129 90.0717 255.233 89.9834 255.354C89.8986 255.474 89.8562 255.608 89.8562 255.756C89.8562 255.898 89.8792 256.02 89.9251 256.122C89.971 256.225 90.0329 256.309 90.1106 256.376C90.1918 256.44 90.2855 256.488 90.3915 256.52C90.501 256.548 90.6176 256.562 90.7413 256.562C90.9073 256.562 91.0592 256.546 91.197 256.514C91.3348 256.479 91.4638 256.429 91.5839 256.366C91.7076 256.302 91.8242 256.226 91.9337 256.138C92.0468 256.05 92.1563 255.949 92.2623 255.836V254.723ZM89.2149 252.529C89.5117 252.243 89.8315 252.029 90.1742 251.888C90.5169 251.746 90.8967 251.676 91.3136 251.676C91.614 251.676 91.8807 251.725 92.1139 251.824C92.3471 251.923 92.5432 252.061 92.7022 252.237C92.8612 252.414 92.9813 252.628 93.0626 252.879C93.1438 253.129 93.1845 253.405 93.1845 253.705V257.14H92.7658C92.6739 257.14 92.6033 257.126 92.5538 257.097C92.5043 257.065 92.4655 257.005 92.4372 256.917L92.3312 256.408C92.1899 256.539 92.0521 256.656 91.9178 256.758C91.7836 256.857 91.6422 256.942 91.4938 257.012C91.3454 257.08 91.1864 257.131 91.0168 257.166C90.8508 257.205 90.6653 257.224 90.4604 257.224C90.2519 257.224 90.0558 257.196 89.8721 257.14C89.6884 257.08 89.5276 256.991 89.3898 256.875C89.2555 256.758 89.1478 256.611 89.0665 256.435C88.9888 256.255 88.9499 256.043 88.9499 255.799C88.9499 255.587 89.0082 255.384 89.1248 255.189C89.2414 254.991 89.4304 254.817 89.6919 254.665C89.9534 254.513 90.2943 254.389 90.7148 254.294C91.1352 254.195 91.6511 254.138 92.2623 254.124V253.705C92.2623 253.288 92.1722 252.974 91.992 252.762C91.8118 252.546 91.5486 252.439 91.2023 252.439C90.9692 252.439 90.7731 252.469 90.6141 252.529C90.4586 252.585 90.3226 252.651 90.206 252.725C90.0929 252.796 89.994 252.861 89.9092 252.921C89.8279 252.978 89.7467 253.006 89.6654 253.006C89.6018 253.006 89.547 252.99 89.5011 252.958C89.4552 252.923 89.4163 252.88 89.3845 252.831L89.2149 252.529ZM95.5701 255.846C95.7433 256.08 95.9323 256.244 96.1372 256.339C96.3421 256.435 96.5718 256.482 96.8262 256.482C97.3279 256.482 97.713 256.304 97.9815 255.947C98.2501 255.59 98.3843 255.082 98.3843 254.421C98.3843 254.071 98.3525 253.771 98.2889 253.52C98.2289 253.269 98.1405 253.064 98.0239 252.905C97.9073 252.743 97.7643 252.624 97.5947 252.55C97.4251 252.476 97.2325 252.439 97.017 252.439C96.7096 252.439 96.4393 252.509 96.2061 252.651C95.9765 252.792 95.7645 252.992 95.5701 253.25V255.846ZM95.5224 252.603C95.7486 252.324 96.01 252.1 96.3068 251.93C96.6036 251.76 96.9428 251.676 97.3244 251.676C97.6353 251.676 97.9162 251.736 98.167 251.856C98.4179 251.972 98.6317 252.147 98.8083 252.38C98.985 252.61 99.121 252.896 99.2164 253.239C99.3118 253.582 99.3595 253.976 99.3595 254.421C99.3595 254.817 99.3065 255.186 99.2005 255.529C99.0945 255.868 98.9408 256.163 98.7394 256.414C98.5416 256.661 98.2978 256.857 98.008 257.002C97.7219 257.143 97.3986 257.214 97.0382 257.214C96.7096 257.214 96.4269 257.159 96.1902 257.05C95.957 256.936 95.7503 256.781 95.5701 256.583V258.957H94.6215V251.771H95.1885C95.3228 251.771 95.4058 251.836 95.4376 251.967L95.5224 252.603ZM101.512 252.486C101.741 252.243 101.996 252.048 102.275 251.903C102.554 251.759 102.876 251.686 103.239 251.686C103.533 251.686 103.791 251.736 104.013 251.835C104.239 251.93 104.427 252.068 104.575 252.248C104.727 252.425 104.842 252.638 104.919 252.889C104.997 253.14 105.036 253.417 105.036 253.721V257.14H104.087V253.721C104.087 253.315 103.994 253 103.807 252.778C103.623 252.552 103.342 252.439 102.964 252.439C102.685 252.439 102.423 252.506 102.179 252.64C101.939 252.774 101.717 252.956 101.512 253.186V257.14H100.563V249.333H101.512V252.486Z" fill="#546279"/>
<circle cx="127.745" cy="253.14" r="6.10408" fill="#BABABA"/>
<path d="M143.069 250.732C143.038 250.785 143.002 250.826 142.963 250.854C142.928 250.879 142.884 250.891 142.831 250.891C142.771 250.891 142.7 250.861 142.619 250.801C142.538 250.741 142.435 250.676 142.312 250.605C142.191 250.531 142.045 250.464 141.872 250.404C141.702 250.344 141.495 250.313 141.252 250.313C141.022 250.313 140.819 250.345 140.642 250.409C140.469 250.469 140.322 250.552 140.202 250.658C140.086 250.764 139.997 250.889 139.937 251.034C139.877 251.176 139.847 251.329 139.847 251.495C139.847 251.707 139.898 251.884 140.001 252.025C140.107 252.163 140.245 252.281 140.414 252.38C140.587 252.479 140.782 252.566 140.997 252.64C141.216 252.711 141.439 252.785 141.665 252.863C141.895 252.94 142.117 253.029 142.333 253.128C142.552 253.223 142.746 253.345 142.916 253.493C143.089 253.642 143.227 253.824 143.329 254.039C143.435 254.255 143.488 254.52 143.488 254.834C143.488 255.166 143.432 255.479 143.319 255.772C143.206 256.062 143.039 256.315 142.82 256.53C142.605 256.746 142.338 256.915 142.02 257.039C141.706 257.163 141.347 257.224 140.944 257.224C140.45 257.224 140.001 257.136 139.598 256.959C139.195 256.779 138.851 256.537 138.565 256.233L138.861 255.746C138.89 255.707 138.923 255.675 138.962 255.65C139.005 255.622 139.05 255.608 139.1 255.608C139.146 255.608 139.197 255.627 139.254 255.666C139.314 255.702 139.381 255.748 139.455 255.804C139.529 255.861 139.614 255.922 139.709 255.99C139.805 256.057 139.913 256.119 140.033 256.175C140.156 256.232 140.296 256.279 140.451 256.318C140.607 256.354 140.782 256.371 140.976 256.371C141.22 256.371 141.437 256.338 141.628 256.27C141.819 256.203 141.979 256.11 142.11 255.99C142.244 255.866 142.347 255.719 142.418 255.55C142.488 255.38 142.524 255.191 142.524 254.983C142.524 254.753 142.471 254.566 142.365 254.421C142.262 254.272 142.126 254.149 141.957 254.05C141.787 253.951 141.593 253.868 141.374 253.801C141.154 253.73 140.932 253.659 140.706 253.589C140.48 253.515 140.257 253.43 140.038 253.334C139.819 253.239 139.625 253.115 139.455 252.963C139.285 252.811 139.148 252.622 139.042 252.396C138.939 252.167 138.888 251.884 138.888 251.548C138.888 251.28 138.939 251.02 139.042 250.769C139.148 250.518 139.3 250.296 139.497 250.101C139.699 249.907 139.944 249.752 140.234 249.635C140.527 249.519 140.863 249.46 141.241 249.46C141.665 249.46 142.05 249.527 142.396 249.662C142.746 249.796 143.054 249.99 143.319 250.245L143.069 250.732ZM145.573 249.333V253.928H145.817C145.887 253.928 145.946 253.919 145.992 253.901C146.041 253.88 146.092 253.84 146.145 253.78L147.841 251.962C147.891 251.902 147.942 251.856 147.995 251.824C148.051 251.789 148.126 251.771 148.217 251.771H149.071L147.094 253.875C146.999 253.995 146.896 254.089 146.787 254.156C146.85 254.198 146.907 254.248 146.956 254.304C147.009 254.357 147.059 254.419 147.105 254.49L149.203 257.14H148.361C148.279 257.14 148.209 257.127 148.149 257.103C148.092 257.074 148.043 257.025 148 256.954L146.235 254.755C146.182 254.681 146.129 254.633 146.076 254.612C146.027 254.587 145.949 254.575 145.843 254.575H145.573V257.14H144.624V249.333H145.573ZM151.003 251.771V257.14H150.06V251.771H151.003ZM151.205 250.086C151.205 250.177 151.185 250.264 151.146 250.345C151.111 250.423 151.062 250.494 150.998 250.557C150.938 250.617 150.865 250.665 150.781 250.7C150.699 250.736 150.613 250.753 150.521 250.753C150.429 250.753 150.342 250.736 150.261 250.7C150.184 250.665 150.115 250.617 150.055 250.557C149.994 250.494 149.947 250.423 149.911 250.345C149.876 250.264 149.858 250.177 149.858 250.086C149.858 249.994 149.876 249.907 149.911 249.826C149.947 249.741 149.994 249.669 150.055 249.609C150.115 249.545 150.184 249.496 150.261 249.46C150.342 249.425 150.429 249.407 150.521 249.407C150.613 249.407 150.699 249.425 150.781 249.46C150.865 249.496 150.938 249.545 150.998 249.609C151.062 249.669 151.111 249.741 151.146 249.826C151.185 249.907 151.205 249.994 151.205 250.086ZM153.528 249.333V257.14H152.585V249.333H153.528ZM156.033 249.333V257.14H155.09V249.333H156.033ZM162.146 254.516C162.337 254.516 162.505 254.49 162.65 254.437C162.794 254.384 162.916 254.31 163.015 254.214C163.114 254.119 163.188 254.006 163.238 253.875C163.287 253.741 163.312 253.594 163.312 253.435C163.312 253.106 163.211 252.845 163.01 252.651C162.812 252.456 162.524 252.359 162.146 252.359C161.764 252.359 161.473 252.456 161.272 252.651C161.074 252.845 160.975 253.106 160.975 253.435C160.975 253.594 161 253.741 161.049 253.875C161.102 254.006 161.178 254.119 161.277 254.214C161.376 254.31 161.498 254.384 161.643 254.437C161.787 254.49 161.955 254.516 162.146 254.516ZM163.847 257.431C163.847 257.3 163.81 257.194 163.736 257.113C163.662 257.032 163.561 256.968 163.434 256.922C163.31 256.876 163.165 256.845 162.999 256.827C162.833 256.806 162.657 256.79 162.469 256.779C162.286 256.769 162.098 256.758 161.908 256.747C161.717 256.737 161.533 256.719 161.356 256.694C161.159 256.786 160.996 256.903 160.869 257.044C160.745 257.182 160.683 257.345 160.683 257.532C160.683 257.652 160.713 257.763 160.773 257.866C160.837 257.972 160.932 258.062 161.06 258.136C161.187 258.214 161.346 258.274 161.537 258.316C161.731 258.362 161.959 258.385 162.22 258.385C162.475 258.385 162.703 258.362 162.904 258.316C163.105 258.27 163.275 258.205 163.413 258.12C163.554 258.035 163.662 257.935 163.736 257.818C163.81 257.701 163.847 257.572 163.847 257.431ZM164.807 251.983V252.333C164.807 252.449 164.732 252.524 164.584 252.555L163.974 252.635C164.095 252.868 164.155 253.126 164.155 253.409C164.155 253.67 164.103 253.909 164.001 254.124C163.902 254.336 163.764 254.518 163.588 254.67C163.411 254.822 163.199 254.938 162.952 255.02C162.704 255.101 162.436 255.142 162.146 255.142C161.895 255.142 161.658 255.112 161.436 255.052C161.323 255.122 161.236 255.198 161.176 255.279C161.116 255.357 161.086 255.437 161.086 255.518C161.086 255.645 161.137 255.742 161.24 255.809C161.346 255.873 161.484 255.919 161.653 255.947C161.823 255.975 162.015 255.993 162.231 256C162.45 256.007 162.673 256.02 162.899 256.037C163.128 256.051 163.351 256.078 163.566 256.117C163.785 256.156 163.98 256.219 164.149 256.308C164.319 256.396 164.455 256.518 164.557 256.673C164.663 256.829 164.716 257.03 164.716 257.277C164.716 257.507 164.658 257.73 164.542 257.945C164.429 258.161 164.264 258.352 164.049 258.518C163.833 258.687 163.568 258.821 163.254 258.92C162.943 259.023 162.591 259.074 162.199 259.074C161.807 259.074 161.464 259.035 161.171 258.957C160.878 258.88 160.634 258.776 160.44 258.645C160.245 258.514 160.099 258.362 160 258.189C159.904 258.019 159.857 257.841 159.857 257.654C159.857 257.389 159.94 257.164 160.106 256.981C160.272 256.797 160.5 256.65 160.789 256.541C160.63 256.47 160.503 256.376 160.408 256.26C160.316 256.14 160.27 255.979 160.27 255.778C160.27 255.7 160.284 255.62 160.312 255.539C160.341 255.454 160.383 255.371 160.44 255.29C160.5 255.205 160.572 255.126 160.657 255.052C160.742 254.977 160.841 254.912 160.954 254.855C160.689 254.707 160.482 254.511 160.334 254.267C160.185 254.02 160.111 253.734 160.111 253.409C160.111 253.147 160.16 252.91 160.259 252.698C160.362 252.483 160.503 252.301 160.683 252.153C160.864 252.001 161.077 251.884 161.325 251.803C161.575 251.721 161.849 251.681 162.146 251.681C162.379 251.681 162.597 251.707 162.798 251.76C162.999 251.81 163.183 251.884 163.349 251.983H164.807ZM166.678 252.847C166.847 252.479 167.056 252.193 167.303 251.988C167.55 251.78 167.853 251.676 168.209 251.676C168.322 251.676 168.43 251.688 168.533 251.713C168.639 251.737 168.732 251.776 168.814 251.829L168.745 252.534C168.723 252.622 168.67 252.667 168.586 252.667C168.536 252.667 168.464 252.656 168.368 252.635C168.273 252.614 168.165 252.603 168.045 252.603C167.875 252.603 167.724 252.628 167.589 252.677C167.459 252.727 167.34 252.801 167.234 252.9C167.132 252.995 167.038 253.115 166.953 253.26C166.872 253.402 166.798 253.564 166.731 253.748V257.14H165.782V251.771H166.323C166.425 251.771 166.496 251.79 166.535 251.829C166.574 251.868 166.6 251.935 166.614 252.031L166.678 252.847ZM172.47 254.723C172.035 254.737 171.664 254.772 171.357 254.829C171.053 254.882 170.804 254.953 170.61 255.041C170.419 255.129 170.279 255.233 170.191 255.354C170.106 255.474 170.064 255.608 170.064 255.756C170.064 255.898 170.087 256.02 170.133 256.122C170.179 256.225 170.24 256.309 170.318 256.376C170.399 256.44 170.493 256.488 170.599 256.52C170.709 256.548 170.825 256.562 170.949 256.562C171.115 256.562 171.267 256.546 171.405 256.514C171.542 256.479 171.671 256.429 171.791 256.366C171.915 256.302 172.032 256.226 172.141 256.138C172.254 256.05 172.364 255.949 172.47 255.836V254.723ZM169.422 252.529C169.719 252.243 170.039 252.029 170.382 251.888C170.724 251.746 171.104 251.676 171.521 251.676C171.822 251.676 172.088 251.725 172.321 251.824C172.555 251.923 172.751 252.061 172.91 252.237C173.069 252.414 173.189 252.628 173.27 252.879C173.351 253.129 173.392 253.405 173.392 253.705V257.14H172.973C172.881 257.14 172.811 257.126 172.761 257.097C172.712 257.065 172.673 257.005 172.645 256.917L172.539 256.408C172.397 256.539 172.26 256.656 172.125 256.758C171.991 256.857 171.85 256.942 171.701 257.012C171.553 257.08 171.394 257.131 171.224 257.166C171.058 257.205 170.873 257.224 170.668 257.224C170.459 257.224 170.263 257.196 170.08 257.14C169.896 257.08 169.735 256.991 169.597 256.875C169.463 256.758 169.355 256.611 169.274 256.435C169.196 256.255 169.157 256.043 169.157 255.799C169.157 255.587 169.216 255.384 169.332 255.189C169.449 254.991 169.638 254.817 169.899 254.665C170.161 254.513 170.502 254.389 170.922 254.294C171.343 254.195 171.859 254.138 172.47 254.124V253.705C172.47 253.288 172.38 252.974 172.2 252.762C172.019 252.546 171.756 252.439 171.41 252.439C171.177 252.439 170.981 252.469 170.822 252.529C170.666 252.585 170.53 252.651 170.414 252.725C170.3 252.796 170.202 252.861 170.117 252.921C170.035 252.978 169.954 253.006 169.873 253.006C169.809 253.006 169.755 252.99 169.709 252.958C169.663 252.923 169.624 252.88 169.592 252.831L169.422 252.529ZM175.778 255.846C175.951 256.08 176.14 256.244 176.345 256.339C176.55 256.435 176.779 256.482 177.034 256.482C177.535 256.482 177.921 256.304 178.189 255.947C178.458 255.59 178.592 255.082 178.592 254.421C178.592 254.071 178.56 253.771 178.496 253.52C178.436 253.269 178.348 253.064 178.231 252.905C178.115 252.743 177.972 252.624 177.802 252.55C177.633 252.476 177.44 252.439 177.225 252.439C176.917 252.439 176.647 252.509 176.414 252.651C176.184 252.792 175.972 252.992 175.778 253.25V255.846ZM175.73 252.603C175.956 252.324 176.218 252.1 176.514 251.93C176.811 251.76 177.15 251.676 177.532 251.676C177.843 251.676 178.124 251.736 178.375 251.856C178.625 251.972 178.839 252.147 179.016 252.38C179.193 252.61 179.329 252.896 179.424 253.239C179.519 253.582 179.567 253.976 179.567 254.421C179.567 254.817 179.514 255.186 179.408 255.529C179.302 255.868 179.148 256.163 178.947 256.414C178.749 256.661 178.505 256.857 178.216 257.002C177.929 257.143 177.606 257.214 177.246 257.214C176.917 257.214 176.634 257.159 176.398 257.05C176.165 256.936 175.958 256.781 175.778 256.583V258.957H174.829V251.771H175.396C175.53 251.771 175.613 251.836 175.645 251.967L175.73 252.603ZM181.719 252.486C181.949 252.243 182.203 252.048 182.482 251.903C182.762 251.759 183.083 251.686 183.447 251.686C183.74 251.686 183.998 251.736 184.221 251.835C184.447 251.93 184.634 252.068 184.783 252.248C184.934 252.425 185.049 252.638 185.127 252.889C185.205 253.14 185.244 253.417 185.244 253.721V257.14H184.295V253.721C184.295 253.315 184.201 253 184.014 252.778C183.83 252.552 183.549 252.439 183.171 252.439C182.892 252.439 182.631 252.506 182.387 252.64C182.147 252.774 181.924 252.956 181.719 253.186V257.14H180.771V249.333H181.719V252.486ZM190.289 252.847C190.458 252.479 190.667 252.193 190.914 251.988C191.162 251.78 191.464 251.676 191.82 251.676C191.934 251.676 192.041 251.688 192.144 251.713C192.25 251.737 192.343 251.776 192.425 251.829L192.356 252.534C192.335 252.622 192.282 252.667 192.197 252.667C192.147 252.667 192.075 252.656 191.979 252.635C191.884 252.614 191.776 252.603 191.656 252.603C191.487 252.603 191.335 252.628 191.2 252.677C191.07 252.727 190.951 252.801 190.845 252.9C190.743 252.995 190.649 253.115 190.564 253.26C190.483 253.402 190.409 253.564 190.342 253.748V257.14H189.393V251.771H189.934C190.036 251.771 190.107 251.79 190.146 251.829C190.185 251.868 190.211 251.935 190.225 252.031L190.289 252.847ZM196.63 253.87C196.63 253.651 196.598 253.451 196.535 253.271C196.475 253.087 196.384 252.93 196.264 252.799C196.148 252.665 196.005 252.562 195.835 252.492C195.665 252.418 195.473 252.38 195.257 252.38C194.805 252.38 194.447 252.513 194.182 252.778C193.92 253.039 193.758 253.403 193.694 253.87H196.63ZM197.393 256.387C197.277 256.528 197.137 256.652 196.975 256.758C196.812 256.861 196.637 256.945 196.45 257.012C196.266 257.08 196.075 257.129 195.877 257.161C195.68 257.196 195.484 257.214 195.289 257.214C194.918 257.214 194.575 257.152 194.261 257.028C193.95 256.901 193.68 256.717 193.45 256.477C193.224 256.233 193.047 255.933 192.92 255.576C192.793 255.219 192.729 254.809 192.729 254.347C192.729 253.972 192.786 253.622 192.899 253.297C193.016 252.972 193.182 252.691 193.397 252.455C193.613 252.214 193.876 252.027 194.187 251.893C194.498 251.755 194.848 251.686 195.236 251.686C195.558 251.686 195.854 251.741 196.127 251.85C196.402 251.956 196.639 252.112 196.837 252.317C197.038 252.518 197.195 252.769 197.308 253.069C197.421 253.366 197.478 253.705 197.478 254.087C197.478 254.235 197.462 254.334 197.43 254.384C197.399 254.433 197.338 254.458 197.25 254.458H193.662C193.673 254.797 193.719 255.092 193.8 255.343C193.885 255.594 194.001 255.804 194.15 255.974C194.298 256.14 194.475 256.265 194.68 256.35C194.885 256.431 195.114 256.472 195.369 256.472C195.605 256.472 195.809 256.445 195.978 256.392C196.151 256.336 196.3 256.276 196.423 256.212C196.547 256.149 196.649 256.09 196.731 256.037C196.816 255.981 196.888 255.952 196.948 255.952C197.026 255.952 197.086 255.983 197.128 256.043L197.393 256.387ZM202.135 253.043C201.965 252.817 201.776 252.656 201.568 252.561C201.359 252.462 201.128 252.412 200.873 252.412C200.375 252.412 199.992 252.591 199.723 252.947C199.455 253.304 199.32 253.813 199.32 254.474C199.32 254.824 199.35 255.124 199.411 255.375C199.471 255.622 199.559 255.827 199.676 255.99C199.792 256.149 199.935 256.265 200.105 256.339C200.274 256.414 200.467 256.451 200.682 256.451C200.993 256.451 201.264 256.38 201.493 256.239C201.727 256.097 201.94 255.898 202.135 255.64V253.043ZM203.078 251.771V258.957H202.135V256.339C201.912 256.601 201.656 256.813 201.366 256.975C201.076 257.134 200.746 257.214 200.375 257.214C200.068 257.214 199.789 257.156 199.538 257.039C199.287 256.919 199.073 256.744 198.896 256.514C198.72 256.285 198.584 255.998 198.488 255.656C198.393 255.313 198.345 254.919 198.345 254.474C198.345 254.078 198.398 253.711 198.504 253.371C198.61 253.029 198.762 252.732 198.96 252.481C199.158 252.23 199.4 252.034 199.686 251.893C199.976 251.748 200.301 251.676 200.661 251.676C201.011 251.676 201.308 251.737 201.552 251.861C201.795 251.985 202.011 252.158 202.198 252.38L202.262 251.967C202.297 251.836 202.382 251.771 202.516 251.771H203.078ZM208.983 251.771V257.14H208.421C208.287 257.14 208.202 257.074 208.167 256.944L208.092 256.366C207.859 256.624 207.598 256.832 207.308 256.991C207.018 257.147 206.686 257.224 206.312 257.224C206.018 257.224 205.759 257.177 205.533 257.081C205.31 256.982 205.123 256.845 204.971 256.668C204.819 256.491 204.704 256.278 204.626 256.027C204.552 255.776 204.515 255.498 204.515 255.195V251.771H205.458V255.195C205.458 255.601 205.55 255.915 205.734 256.138C205.921 256.361 206.206 256.472 206.587 256.472C206.866 256.472 207.126 256.407 207.366 256.276C207.61 256.142 207.834 255.958 208.039 255.725V251.771H208.983ZM211.475 251.771V257.14H210.532V251.771H211.475ZM211.676 250.086C211.676 250.177 211.657 250.264 211.618 250.345C211.583 250.423 211.533 250.494 211.47 250.557C211.41 250.617 211.337 250.665 211.252 250.7C211.171 250.736 211.084 250.753 210.993 250.753C210.901 250.753 210.814 250.736 210.733 250.7C210.655 250.665 210.586 250.617 210.526 250.557C210.466 250.494 210.418 250.423 210.383 250.345C210.348 250.264 210.33 250.177 210.33 250.086C210.33 249.994 210.348 249.907 210.383 249.826C210.418 249.741 210.466 249.669 210.526 249.609C210.586 249.545 210.655 249.496 210.733 249.46C210.814 249.425 210.901 249.407 210.993 249.407C211.084 249.407 211.171 249.425 211.252 249.46C211.337 249.496 211.41 249.545 211.47 249.609C211.533 249.669 211.583 249.741 211.618 249.826C211.657 249.907 211.676 249.994 211.676 250.086ZM213.921 252.847C214.09 252.479 214.299 252.193 214.546 251.988C214.793 251.78 215.095 251.676 215.452 251.676C215.565 251.676 215.673 251.688 215.776 251.713C215.882 251.737 215.975 251.776 216.056 251.829L215.988 252.534C215.966 252.622 215.913 252.667 215.829 252.667C215.779 252.667 215.707 252.656 215.611 252.635C215.516 252.614 215.408 252.603 215.288 252.603C215.118 252.603 214.966 252.628 214.832 252.677C214.701 252.727 214.583 252.801 214.477 252.9C214.375 252.995 214.281 253.115 214.196 253.26C214.115 253.402 214.041 253.564 213.974 253.748V257.14H213.025V251.771H213.565C213.668 251.771 213.739 251.79 213.777 251.829C213.816 251.868 213.843 251.935 213.857 252.031L213.921 252.847ZM220.262 253.87C220.262 253.651 220.23 253.451 220.166 253.271C220.106 253.087 220.016 252.93 219.896 252.799C219.78 252.665 219.636 252.562 219.467 252.492C219.297 252.418 219.105 252.38 218.889 252.38C218.437 252.38 218.078 252.513 217.813 252.778C217.552 253.039 217.389 253.403 217.326 253.87H220.262ZM221.025 256.387C220.908 256.528 220.769 256.652 220.606 256.758C220.444 256.861 220.269 256.945 220.082 257.012C219.898 257.08 219.707 257.129 219.509 257.161C219.311 257.196 219.115 257.214 218.921 257.214C218.55 257.214 218.207 257.152 217.893 257.028C217.582 256.901 217.312 256.717 217.082 256.477C216.856 256.233 216.679 255.933 216.552 255.576C216.425 255.219 216.361 254.809 216.361 254.347C216.361 253.972 216.418 253.622 216.531 253.297C216.647 252.972 216.813 252.691 217.029 252.455C217.244 252.214 217.508 252.027 217.819 251.893C218.13 251.755 218.479 251.686 218.868 251.686C219.189 251.686 219.486 251.741 219.758 251.85C220.034 251.956 220.271 252.112 220.469 252.317C220.67 252.518 220.827 252.769 220.94 253.069C221.053 253.366 221.11 253.705 221.11 254.087C221.11 254.235 221.094 254.334 221.062 254.384C221.03 254.433 220.97 254.458 220.882 254.458H217.294C217.305 254.797 217.35 255.092 217.432 255.343C217.517 255.594 217.633 255.804 217.781 255.974C217.93 256.14 218.107 256.265 218.311 256.35C218.516 256.431 218.746 256.472 219 256.472C219.237 256.472 219.44 256.445 219.61 256.392C219.783 256.336 219.931 256.276 220.055 256.212C220.179 256.149 220.281 256.09 220.363 256.037C220.447 255.981 220.52 255.952 220.58 255.952C220.658 255.952 220.718 255.983 220.76 256.043L221.025 256.387ZM225.766 253.048C225.59 252.811 225.399 252.647 225.194 252.555C224.989 252.46 224.759 252.412 224.505 252.412C224.007 252.412 223.624 252.591 223.355 252.947C223.086 253.304 222.952 253.813 222.952 254.474C222.952 254.824 222.982 255.124 223.042 255.375C223.102 255.622 223.191 255.827 223.307 255.99C223.424 256.149 223.567 256.265 223.737 256.339C223.906 256.414 224.099 256.451 224.314 256.451C224.625 256.451 224.895 256.38 225.125 256.239C225.358 256.097 225.572 255.898 225.766 255.64V253.048ZM226.71 249.333V257.14H226.148C226.014 257.14 225.929 257.074 225.894 256.944L225.809 256.292C225.579 256.567 225.318 256.79 225.024 256.959C224.731 257.129 224.392 257.214 224.007 257.214C223.699 257.214 223.42 257.156 223.17 257.039C222.919 256.919 222.705 256.744 222.528 256.514C222.352 256.285 222.216 255.998 222.12 255.656C222.025 255.313 221.977 254.919 221.977 254.474C221.977 254.078 222.03 253.711 222.136 253.371C222.242 253.029 222.394 252.732 222.592 252.481C222.79 252.23 223.032 252.034 223.318 251.893C223.608 251.748 223.933 251.676 224.293 251.676C224.622 251.676 224.903 251.732 225.136 251.845C225.372 251.955 225.583 252.108 225.766 252.306V249.333H226.71ZM231.262 257.14V252.577L230.668 252.508C230.594 252.49 230.532 252.463 230.483 252.428C230.437 252.389 230.414 252.334 230.414 252.264V251.877H231.262V251.358C231.262 251.05 231.304 250.778 231.389 250.541C231.477 250.301 231.601 250.1 231.76 249.937C231.922 249.771 232.117 249.646 232.343 249.561C232.569 249.476 232.823 249.434 233.106 249.434C233.346 249.434 233.567 249.469 233.768 249.54L233.747 250.011C233.74 250.096 233.692 250.142 233.604 250.149C233.519 250.156 233.404 250.16 233.26 250.16C233.097 250.16 232.949 250.181 232.814 250.223C232.684 250.266 232.571 250.335 232.475 250.43C232.38 250.525 232.306 250.651 232.253 250.806C232.203 250.962 232.178 251.154 232.178 251.384V251.877H233.726V252.561H232.21V257.14H231.262ZM236.715 251.686C237.107 251.686 237.46 251.752 237.775 251.882C238.089 252.013 238.358 252.198 238.58 252.439C238.803 252.679 238.973 252.97 239.089 253.313C239.209 253.652 239.269 254.032 239.269 254.453C239.269 254.877 239.209 255.258 239.089 255.597C238.973 255.937 238.803 256.226 238.58 256.467C238.358 256.707 238.089 256.892 237.775 257.023C237.46 257.15 237.107 257.214 236.715 257.214C236.319 257.214 235.962 257.15 235.644 257.023C235.33 256.892 235.061 256.707 234.839 256.467C234.616 256.226 234.445 255.937 234.325 255.597C234.208 255.258 234.15 254.877 234.15 254.453C234.15 254.032 234.208 253.652 234.325 253.313C234.445 252.97 234.616 252.679 234.839 252.439C235.061 252.198 235.33 252.013 235.644 251.882C235.962 251.752 236.319 251.686 236.715 251.686ZM236.715 256.477C237.245 256.477 237.641 256.301 237.902 255.947C238.164 255.59 238.294 255.094 238.294 254.458C238.294 253.818 238.164 253.32 237.902 252.963C237.641 252.607 237.245 252.428 236.715 252.428C236.446 252.428 236.211 252.474 236.01 252.566C235.812 252.658 235.646 252.79 235.512 252.963C235.381 253.137 235.282 253.35 235.215 253.605C235.151 253.856 235.12 254.14 235.12 254.458C235.12 255.094 235.25 255.59 235.512 255.947C235.777 256.301 236.178 256.477 236.715 256.477ZM241.362 252.847C241.531 252.479 241.74 252.193 241.987 251.988C242.234 251.78 242.536 251.676 242.893 251.676C243.006 251.676 243.114 251.688 243.217 251.713C243.323 251.737 243.416 251.776 243.497 251.829L243.429 252.534C243.407 252.622 243.354 252.667 243.27 252.667C243.22 252.667 243.148 252.656 243.052 252.635C242.957 252.614 242.849 252.603 242.729 252.603C242.559 252.603 242.407 252.628 242.273 252.677C242.142 252.727 242.024 252.801 241.918 252.9C241.816 252.995 241.722 253.115 241.637 253.26C241.556 253.402 241.482 253.564 241.415 253.748V257.14H240.466V251.771H241.007C241.109 251.771 241.18 251.79 241.219 251.829C241.257 251.868 241.284 251.935 241.298 252.031L241.362 252.847ZM251.174 251.771L248.18 258.724C248.148 258.795 248.107 258.851 248.058 258.894C248.012 258.936 247.939 258.957 247.841 258.957H247.141L248.121 256.827L245.906 251.771H246.722C246.804 251.771 246.867 251.792 246.913 251.835C246.963 251.873 246.996 251.918 247.014 251.967L248.45 255.348C248.507 255.497 248.554 255.652 248.593 255.815C248.643 255.649 248.696 255.491 248.752 255.343L250.146 251.967C250.167 251.911 250.202 251.865 250.252 251.829C250.305 251.79 250.363 251.771 250.427 251.771H251.174ZM254.126 251.686C254.518 251.686 254.871 251.752 255.186 251.882C255.5 252.013 255.769 252.198 255.991 252.439C256.214 252.679 256.383 252.97 256.5 253.313C256.62 253.652 256.68 254.032 256.68 254.453C256.68 254.877 256.62 255.258 256.5 255.597C256.383 255.937 256.214 256.226 255.991 256.467C255.769 256.707 255.5 256.892 255.186 257.023C254.871 257.15 254.518 257.214 254.126 257.214C253.73 257.214 253.373 257.15 253.055 257.023C252.741 256.892 252.472 256.707 252.249 256.467C252.027 256.226 251.856 255.937 251.735 255.597C251.619 255.258 251.561 254.877 251.561 254.453C251.561 254.032 251.619 253.652 251.735 253.313C251.856 252.97 252.027 252.679 252.249 252.439C252.472 252.198 252.741 252.013 253.055 251.882C253.373 251.752 253.73 251.686 254.126 251.686ZM254.126 256.477C254.656 256.477 255.051 256.301 255.313 255.947C255.574 255.59 255.705 255.094 255.705 254.458C255.705 253.818 255.574 253.32 255.313 252.963C255.051 252.607 254.656 252.428 254.126 252.428C253.857 252.428 253.622 252.474 253.421 252.566C253.223 252.658 253.057 252.79 252.923 252.963C252.792 253.137 252.693 253.35 252.626 253.605C252.562 253.856 252.53 254.14 252.53 254.458C252.53 255.094 252.661 255.59 252.923 255.947C253.188 256.301 253.589 256.477 254.126 256.477ZM262.291 251.771V257.14H261.73C261.595 257.14 261.511 257.074 261.475 256.944L261.401 256.366C261.168 256.624 260.906 256.832 260.617 256.991C260.327 257.147 259.995 257.224 259.62 257.224C259.327 257.224 259.067 257.177 258.841 257.081C258.619 256.982 258.431 256.845 258.279 256.668C258.128 256.491 258.013 256.278 257.935 256.027C257.861 255.776 257.824 255.498 257.824 255.195V251.771H258.767V255.195C258.767 255.601 258.859 255.915 259.043 256.138C259.23 256.361 259.514 256.472 259.896 256.472C260.175 256.472 260.435 256.407 260.675 256.276C260.919 256.142 261.143 255.958 261.348 255.725V251.771H262.291ZM264.683 252.847C264.852 252.479 265.061 252.193 265.308 251.988C265.556 251.78 265.858 251.676 266.214 251.676C266.328 251.676 266.435 251.688 266.538 251.713C266.644 251.737 266.737 251.776 266.819 251.829L266.75 252.534C266.729 252.622 266.676 252.667 266.591 252.667C266.541 252.667 266.469 252.656 266.373 252.635C266.278 252.614 266.17 252.603 266.05 252.603C265.881 252.603 265.729 252.628 265.594 252.677C265.464 252.727 265.345 252.801 265.239 252.9C265.137 252.995 265.043 253.115 264.958 253.26C264.877 253.402 264.803 253.564 264.736 253.748V257.14H263.787V251.771H264.328C264.43 251.771 264.501 251.79 264.54 251.829C264.579 251.868 264.605 251.935 264.619 252.031L264.683 252.847ZM271.108 249.333V257.14H270.164V249.333H271.108ZM276.231 253.87C276.231 253.651 276.199 253.451 276.135 253.271C276.075 253.087 275.985 252.93 275.865 252.799C275.748 252.665 275.605 252.562 275.436 252.492C275.266 252.418 275.074 252.38 274.858 252.38C274.406 252.38 274.047 252.513 273.782 252.778C273.521 253.039 273.358 253.403 273.295 253.87H276.231ZM276.994 256.387C276.877 256.528 276.738 256.652 276.575 256.758C276.413 256.861 276.238 256.945 276.051 257.012C275.867 257.08 275.676 257.129 275.478 257.161C275.28 257.196 275.084 257.214 274.89 257.214C274.519 257.214 274.176 257.152 273.862 257.028C273.551 256.901 273.28 256.717 273.051 256.477C272.825 256.233 272.648 255.933 272.521 255.576C272.394 255.219 272.33 254.809 272.33 254.347C272.33 253.972 272.387 253.622 272.5 253.297C272.616 252.972 272.782 252.691 272.998 252.455C273.213 252.214 273.477 252.027 273.788 251.893C274.098 251.755 274.448 251.686 274.837 251.686C275.158 251.686 275.455 251.741 275.727 251.85C276.003 251.956 276.24 252.112 276.437 252.317C276.639 252.518 276.796 252.769 276.909 253.069C277.022 253.366 277.079 253.705 277.079 254.087C277.079 254.235 277.063 254.334 277.031 254.384C276.999 254.433 276.939 254.458 276.851 254.458H273.263C273.273 254.797 273.319 255.092 273.401 255.343C273.485 255.594 273.602 255.804 273.75 255.974C273.899 256.14 274.075 256.265 274.28 256.35C274.485 256.431 274.715 256.472 274.969 256.472C275.206 256.472 275.409 256.445 275.579 256.392C275.752 256.336 275.9 256.276 276.024 256.212C276.148 256.149 276.25 256.09 276.331 256.037C276.416 255.981 276.489 255.952 276.549 255.952C276.626 255.952 276.687 255.983 276.729 256.043L276.994 256.387ZM282.724 251.771L280.535 257.14H279.687L277.498 251.771H278.267C278.344 251.771 278.408 251.79 278.457 251.829C278.507 251.868 278.541 251.914 278.558 251.967L279.92 255.423C279.963 255.553 280 255.68 280.032 255.804C280.063 255.928 280.093 256.051 280.122 256.175C280.15 256.051 280.18 255.928 280.212 255.804C280.244 255.68 280.282 255.553 280.328 255.423L281.706 251.967C281.727 251.911 281.763 251.865 281.812 251.829C281.862 251.79 281.92 251.771 281.987 251.771H282.724ZM287.037 253.87C287.037 253.651 287.006 253.451 286.942 253.271C286.882 253.087 286.792 252.93 286.672 252.799C286.555 252.665 286.412 252.562 286.242 252.492C286.073 252.418 285.88 252.38 285.665 252.38C285.212 252.38 284.854 252.513 284.589 252.778C284.327 253.039 284.165 253.403 284.101 253.87H287.037ZM287.801 256.387C287.684 256.528 287.544 256.652 287.382 256.758C287.219 256.861 287.044 256.945 286.857 257.012C286.673 257.08 286.483 257.129 286.285 257.161C286.087 257.196 285.891 257.214 285.697 257.214C285.326 257.214 284.983 257.152 284.668 257.028C284.357 256.901 284.087 256.717 283.857 256.477C283.631 256.233 283.455 255.933 283.328 255.576C283.2 255.219 283.137 254.809 283.137 254.347C283.137 253.972 283.193 253.622 283.306 253.297C283.423 252.972 283.589 252.691 283.804 252.455C284.02 252.214 284.283 252.027 284.594 251.893C284.905 251.755 285.255 251.686 285.644 251.686C285.965 251.686 286.262 251.741 286.534 251.85C286.809 251.956 287.046 252.112 287.244 252.317C287.445 252.518 287.603 252.769 287.716 253.069C287.829 253.366 287.885 253.705 287.885 254.087C287.885 254.235 287.869 254.334 287.838 254.384C287.806 254.433 287.746 254.458 287.657 254.458H284.069C284.08 254.797 284.126 255.092 284.207 255.343C284.292 255.594 284.409 255.804 284.557 255.974C284.705 256.14 284.882 256.265 285.087 256.35C285.292 256.431 285.522 256.472 285.776 256.472C286.013 256.472 286.216 256.445 286.385 256.392C286.559 256.336 286.707 256.276 286.831 256.212C286.954 256.149 287.057 256.09 287.138 256.037C287.223 255.981 287.295 255.952 287.355 255.952C287.433 255.952 287.493 255.983 287.536 256.043L287.801 256.387ZM290.019 249.333V257.14H289.076V249.333H290.019Z" fill="#546279"/>
<defs>
<radialGradient id="paint0_radial_16_626" cx="0" cy="0" r="1" gradientUnits="userSpaceOnUse" gradientTransform="translate(168.342 114.34) rotate(90) scale(59.2165 53.4859)">
<stop stop-color="#D9D9D9"/>
<stop offset="1" stop-color="#B9B9B9"/>
</radialGradient>
<radialGradient id="paint1_radial_16_626" cx="0" cy="0" r="1" gradientUnits="userSpaceOnUse" gradientTransform="translate(168.342 114.34) rotate(90) scale(59.2166 53.4859)">
<stop stop-color="#D9D9D9"/>
<stop offset="1" stop-color="#005FB5"/>
</radialGradient>
<linearGradient id="paint2_linear_16_626" x1="114.856" y1="130.865" x2="217.765" y2="132.38" gradientUnits="userSpaceOnUse">
<stop stop-color="#0082F8"/>
<stop offset="1" stop-color="#61B0F7"/>
</linearGradient>
</defs>
</svg>
